%TF.GenerationSoftware,KiCad,Pcbnew,8.0.1*%
%TF.CreationDate,2024-07-20T13:09:04-07:00*%
%TF.ProjectId,Solenoid Control,536f6c65-6e6f-4696-9420-436f6e74726f,rev?*%
%TF.SameCoordinates,Original*%
%TF.FileFunction,Legend,Top*%
%TF.FilePolarity,Positive*%
%FSLAX46Y46*%
G04 Gerber Fmt 4.6, Leading zero omitted, Abs format (unit mm)*
G04 Created by KiCad (PCBNEW 8.0.1) date 2024-07-20 13:09:04*
%MOMM*%
%LPD*%
G01*
G04 APERTURE LIST*
%ADD10C,0.150000*%
%ADD11C,0.127000*%
%ADD12C,0.120000*%
%ADD13C,0.200000*%
G04 APERTURE END LIST*
D10*
X124084819Y-70666666D02*
X123608628Y-70999999D01*
X124084819Y-71238094D02*
X123084819Y-71238094D01*
X123084819Y-71238094D02*
X123084819Y-70857142D01*
X123084819Y-70857142D02*
X123132438Y-70761904D01*
X123132438Y-70761904D02*
X123180057Y-70714285D01*
X123180057Y-70714285D02*
X123275295Y-70666666D01*
X123275295Y-70666666D02*
X123418152Y-70666666D01*
X123418152Y-70666666D02*
X123513390Y-70714285D01*
X123513390Y-70714285D02*
X123561009Y-70761904D01*
X123561009Y-70761904D02*
X123608628Y-70857142D01*
X123608628Y-70857142D02*
X123608628Y-71238094D01*
X123084819Y-70333332D02*
X123084819Y-69714285D01*
X123084819Y-69714285D02*
X123465771Y-70047618D01*
X123465771Y-70047618D02*
X123465771Y-69904761D01*
X123465771Y-69904761D02*
X123513390Y-69809523D01*
X123513390Y-69809523D02*
X123561009Y-69761904D01*
X123561009Y-69761904D02*
X123656247Y-69714285D01*
X123656247Y-69714285D02*
X123894342Y-69714285D01*
X123894342Y-69714285D02*
X123989580Y-69761904D01*
X123989580Y-69761904D02*
X124037200Y-69809523D01*
X124037200Y-69809523D02*
X124084819Y-69904761D01*
X124084819Y-69904761D02*
X124084819Y-70190475D01*
X124084819Y-70190475D02*
X124037200Y-70285713D01*
X124037200Y-70285713D02*
X123989580Y-70333332D01*
X137110057Y-81885238D02*
X137062438Y-81980476D01*
X137062438Y-81980476D02*
X136967200Y-82075714D01*
X136967200Y-82075714D02*
X136824342Y-82218571D01*
X136824342Y-82218571D02*
X136776723Y-82313809D01*
X136776723Y-82313809D02*
X136776723Y-82409047D01*
X137014819Y-82361428D02*
X136967200Y-82456666D01*
X136967200Y-82456666D02*
X136871961Y-82551904D01*
X136871961Y-82551904D02*
X136681485Y-82599523D01*
X136681485Y-82599523D02*
X136348152Y-82599523D01*
X136348152Y-82599523D02*
X136157676Y-82551904D01*
X136157676Y-82551904D02*
X136062438Y-82456666D01*
X136062438Y-82456666D02*
X136014819Y-82361428D01*
X136014819Y-82361428D02*
X136014819Y-82170952D01*
X136014819Y-82170952D02*
X136062438Y-82075714D01*
X136062438Y-82075714D02*
X136157676Y-81980476D01*
X136157676Y-81980476D02*
X136348152Y-81932857D01*
X136348152Y-81932857D02*
X136681485Y-81932857D01*
X136681485Y-81932857D02*
X136871961Y-81980476D01*
X136871961Y-81980476D02*
X136967200Y-82075714D01*
X136967200Y-82075714D02*
X137014819Y-82170952D01*
X137014819Y-82170952D02*
X137014819Y-82361428D01*
X136014819Y-81599523D02*
X136014819Y-80980476D01*
X136014819Y-80980476D02*
X136395771Y-81313809D01*
X136395771Y-81313809D02*
X136395771Y-81170952D01*
X136395771Y-81170952D02*
X136443390Y-81075714D01*
X136443390Y-81075714D02*
X136491009Y-81028095D01*
X136491009Y-81028095D02*
X136586247Y-80980476D01*
X136586247Y-80980476D02*
X136824342Y-80980476D01*
X136824342Y-80980476D02*
X136919580Y-81028095D01*
X136919580Y-81028095D02*
X136967200Y-81075714D01*
X136967200Y-81075714D02*
X137014819Y-81170952D01*
X137014819Y-81170952D02*
X137014819Y-81456666D01*
X137014819Y-81456666D02*
X136967200Y-81551904D01*
X136967200Y-81551904D02*
X136919580Y-81599523D01*
X132914761Y-86490057D02*
X132819523Y-86442438D01*
X132819523Y-86442438D02*
X132724285Y-86347200D01*
X132724285Y-86347200D02*
X132581428Y-86204342D01*
X132581428Y-86204342D02*
X132486190Y-86156723D01*
X132486190Y-86156723D02*
X132390952Y-86156723D01*
X132438571Y-86394819D02*
X132343333Y-86347200D01*
X132343333Y-86347200D02*
X132248095Y-86251961D01*
X132248095Y-86251961D02*
X132200476Y-86061485D01*
X132200476Y-86061485D02*
X132200476Y-85728152D01*
X132200476Y-85728152D02*
X132248095Y-85537676D01*
X132248095Y-85537676D02*
X132343333Y-85442438D01*
X132343333Y-85442438D02*
X132438571Y-85394819D01*
X132438571Y-85394819D02*
X132629047Y-85394819D01*
X132629047Y-85394819D02*
X132724285Y-85442438D01*
X132724285Y-85442438D02*
X132819523Y-85537676D01*
X132819523Y-85537676D02*
X132867142Y-85728152D01*
X132867142Y-85728152D02*
X132867142Y-86061485D01*
X132867142Y-86061485D02*
X132819523Y-86251961D01*
X132819523Y-86251961D02*
X132724285Y-86347200D01*
X132724285Y-86347200D02*
X132629047Y-86394819D01*
X132629047Y-86394819D02*
X132438571Y-86394819D01*
X133248095Y-85490057D02*
X133295714Y-85442438D01*
X133295714Y-85442438D02*
X133390952Y-85394819D01*
X133390952Y-85394819D02*
X133629047Y-85394819D01*
X133629047Y-85394819D02*
X133724285Y-85442438D01*
X133724285Y-85442438D02*
X133771904Y-85490057D01*
X133771904Y-85490057D02*
X133819523Y-85585295D01*
X133819523Y-85585295D02*
X133819523Y-85680533D01*
X133819523Y-85680533D02*
X133771904Y-85823390D01*
X133771904Y-85823390D02*
X133200476Y-86394819D01*
X133200476Y-86394819D02*
X133819523Y-86394819D01*
X139333333Y-93584819D02*
X139000000Y-93108628D01*
X138761905Y-93584819D02*
X138761905Y-92584819D01*
X138761905Y-92584819D02*
X139142857Y-92584819D01*
X139142857Y-92584819D02*
X139238095Y-92632438D01*
X139238095Y-92632438D02*
X139285714Y-92680057D01*
X139285714Y-92680057D02*
X139333333Y-92775295D01*
X139333333Y-92775295D02*
X139333333Y-92918152D01*
X139333333Y-92918152D02*
X139285714Y-93013390D01*
X139285714Y-93013390D02*
X139238095Y-93061009D01*
X139238095Y-93061009D02*
X139142857Y-93108628D01*
X139142857Y-93108628D02*
X138761905Y-93108628D01*
X140238095Y-92584819D02*
X139761905Y-92584819D01*
X139761905Y-92584819D02*
X139714286Y-93061009D01*
X139714286Y-93061009D02*
X139761905Y-93013390D01*
X139761905Y-93013390D02*
X139857143Y-92965771D01*
X139857143Y-92965771D02*
X140095238Y-92965771D01*
X140095238Y-92965771D02*
X140190476Y-93013390D01*
X140190476Y-93013390D02*
X140238095Y-93061009D01*
X140238095Y-93061009D02*
X140285714Y-93156247D01*
X140285714Y-93156247D02*
X140285714Y-93394342D01*
X140285714Y-93394342D02*
X140238095Y-93489580D01*
X140238095Y-93489580D02*
X140190476Y-93537200D01*
X140190476Y-93537200D02*
X140095238Y-93584819D01*
X140095238Y-93584819D02*
X139857143Y-93584819D01*
X139857143Y-93584819D02*
X139761905Y-93537200D01*
X139761905Y-93537200D02*
X139714286Y-93489580D01*
X128824819Y-86166666D02*
X128348628Y-86499999D01*
X128824819Y-86738094D02*
X127824819Y-86738094D01*
X127824819Y-86738094D02*
X127824819Y-86357142D01*
X127824819Y-86357142D02*
X127872438Y-86261904D01*
X127872438Y-86261904D02*
X127920057Y-86214285D01*
X127920057Y-86214285D02*
X128015295Y-86166666D01*
X128015295Y-86166666D02*
X128158152Y-86166666D01*
X128158152Y-86166666D02*
X128253390Y-86214285D01*
X128253390Y-86214285D02*
X128301009Y-86261904D01*
X128301009Y-86261904D02*
X128348628Y-86357142D01*
X128348628Y-86357142D02*
X128348628Y-86738094D01*
X128158152Y-85309523D02*
X128824819Y-85309523D01*
X127777200Y-85547618D02*
X128491485Y-85785713D01*
X128491485Y-85785713D02*
X128491485Y-85166666D01*
X128584819Y-70666666D02*
X128108628Y-70999999D01*
X128584819Y-71238094D02*
X127584819Y-71238094D01*
X127584819Y-71238094D02*
X127584819Y-70857142D01*
X127584819Y-70857142D02*
X127632438Y-70761904D01*
X127632438Y-70761904D02*
X127680057Y-70714285D01*
X127680057Y-70714285D02*
X127775295Y-70666666D01*
X127775295Y-70666666D02*
X127918152Y-70666666D01*
X127918152Y-70666666D02*
X128013390Y-70714285D01*
X128013390Y-70714285D02*
X128061009Y-70761904D01*
X128061009Y-70761904D02*
X128108628Y-70857142D01*
X128108628Y-70857142D02*
X128108628Y-71238094D01*
X128584819Y-69714285D02*
X128584819Y-70285713D01*
X128584819Y-69999999D02*
X127584819Y-69999999D01*
X127584819Y-69999999D02*
X127727676Y-70095237D01*
X127727676Y-70095237D02*
X127822914Y-70190475D01*
X127822914Y-70190475D02*
X127870533Y-70285713D01*
D11*
%TO.C,D2*%
X146650000Y-67400000D02*
X146650000Y-68225000D01*
X146650000Y-68225000D02*
X146650000Y-72600000D01*
X146650000Y-68225000D02*
X149350000Y-68225000D01*
X146650000Y-72600000D02*
X148000000Y-72600000D01*
X148000000Y-67400000D02*
X146650000Y-67400000D01*
X148000000Y-67400000D02*
X148000000Y-66100000D01*
X148000000Y-72600000D02*
X148000000Y-73900000D01*
X148000000Y-72600000D02*
X149350000Y-72600000D01*
X149350000Y-67400000D02*
X148000000Y-67400000D01*
X149350000Y-68225000D02*
X149350000Y-67400000D01*
X149350000Y-72600000D02*
X149350000Y-68225000D01*
%TO.C,SW2*%
D12*
X138640000Y-88150000D02*
X141360000Y-88150000D01*
X141360000Y-77930000D01*
X138640000Y-77930000D01*
X138640000Y-88150000D01*
%TO.C,J3*%
X145840000Y-60870000D02*
X145840000Y-54130000D01*
X151620000Y-54130000D02*
X145840000Y-54130000D01*
X151620000Y-54650000D02*
X145840000Y-54650000D01*
X151620000Y-59750000D02*
X145840000Y-59750000D01*
X151620000Y-60870000D02*
X145840000Y-60870000D01*
X151620000Y-60870000D02*
X151620000Y-54130000D01*
X151860000Y-53890000D02*
X151460000Y-53890000D01*
X151860000Y-54530000D02*
X151860000Y-53890000D01*
%TO.C,R3*%
X124630000Y-67230000D02*
X124630000Y-73770000D01*
X124630000Y-73770000D02*
X127370000Y-73770000D01*
X126000000Y-66460000D02*
X126000000Y-67230000D01*
X126000000Y-74540000D02*
X126000000Y-73770000D01*
X127370000Y-67230000D02*
X124630000Y-67230000D01*
X127370000Y-73770000D02*
X127370000Y-67230000D01*
%TO.C,J6*%
X132340000Y-61370000D02*
X132340000Y-54630000D01*
X138120000Y-54630000D02*
X132340000Y-54630000D01*
X138120000Y-55150000D02*
X132340000Y-55150000D01*
X138120000Y-60250000D02*
X132340000Y-60250000D01*
X138120000Y-61370000D02*
X132340000Y-61370000D01*
X138120000Y-61370000D02*
X138120000Y-54630000D01*
X138360000Y-54390000D02*
X137960000Y-54390000D01*
X138360000Y-55030000D02*
X138360000Y-54390000D01*
%TO.C,Q3*%
X131300000Y-79850000D02*
X131300000Y-83700000D01*
X131300000Y-79850000D02*
G75*
G02*
X131309878Y-83738611I1700000J-1940000D01*
G01*
D11*
%TO.C,S1*%
X136500000Y-70676000D02*
X136500000Y-66324000D01*
X138324000Y-65500000D02*
X140676000Y-65500000D01*
X138324000Y-71500000D02*
X140676000Y-71500000D01*
X142500000Y-70676000D02*
X142500000Y-66324000D01*
D13*
X135596000Y-71750000D02*
G75*
G02*
X135396000Y-71750000I-100000J0D01*
G01*
X135396000Y-71750000D02*
G75*
G02*
X135596000Y-71750000I100000J0D01*
G01*
D12*
%TO.C,J1*%
X154390000Y-62870000D02*
X154390000Y-63270000D01*
X154630000Y-63110000D02*
X154630000Y-68890000D01*
X155030000Y-62870000D02*
X154390000Y-62870000D01*
X155150000Y-63110000D02*
X155150000Y-68890000D01*
X160250000Y-63110000D02*
X160250000Y-68890000D01*
X161370000Y-63110000D02*
X154630000Y-63110000D01*
X161370000Y-63110000D02*
X161370000Y-68890000D01*
X161370000Y-68890000D02*
X154630000Y-68890000D01*
%TO.C,R2*%
X135460000Y-75500000D02*
X136230000Y-75500000D01*
X136230000Y-74130000D02*
X136230000Y-76870000D01*
X136230000Y-76870000D02*
X142770000Y-76870000D01*
X142770000Y-74130000D02*
X136230000Y-74130000D01*
X142770000Y-76870000D02*
X142770000Y-74130000D01*
X143540000Y-75500000D02*
X142770000Y-75500000D01*
%TO.C,Q2*%
X131070000Y-91200000D02*
X134920000Y-91200000D01*
X131070000Y-91200000D02*
G75*
G02*
X134958611Y-91190122I1940000J1700000D01*
G01*
%TO.C,J4*%
X154610000Y-95870000D02*
X154610000Y-89130000D01*
X160390000Y-89130000D02*
X154610000Y-89130000D01*
X160390000Y-89650000D02*
X154610000Y-89650000D01*
X160390000Y-94750000D02*
X154610000Y-94750000D01*
X160390000Y-95870000D02*
X154610000Y-95870000D01*
X160390000Y-95870000D02*
X160390000Y-89130000D01*
X160630000Y-88890000D02*
X160230000Y-88890000D01*
X160630000Y-89530000D02*
X160630000Y-88890000D01*
%TO.C,R5*%
X135460000Y-95500000D02*
X136230000Y-95500000D01*
X136230000Y-94130000D02*
X136230000Y-96870000D01*
X136230000Y-96870000D02*
X142770000Y-96870000D01*
X142770000Y-94130000D02*
X136230000Y-94130000D01*
X142770000Y-96870000D02*
X142770000Y-94130000D01*
X143540000Y-95500000D02*
X142770000Y-95500000D01*
%TO.C,R4*%
X124630000Y-82730000D02*
X124630000Y-89270000D01*
X124630000Y-89270000D02*
X127370000Y-89270000D01*
X126000000Y-81960000D02*
X126000000Y-82730000D01*
X126000000Y-90040000D02*
X126000000Y-89270000D01*
X127370000Y-82730000D02*
X124630000Y-82730000D01*
X127370000Y-89270000D02*
X127370000Y-82730000D01*
%TO.C,J2*%
X154390000Y-73370000D02*
X154390000Y-73770000D01*
X154630000Y-73610000D02*
X154630000Y-79390000D01*
X155030000Y-73370000D02*
X154390000Y-73370000D01*
X155150000Y-73610000D02*
X155150000Y-79390000D01*
X160250000Y-73610000D02*
X160250000Y-79390000D01*
X161370000Y-73610000D02*
X154630000Y-73610000D01*
X161370000Y-73610000D02*
X161370000Y-79390000D01*
X161370000Y-79390000D02*
X154630000Y-79390000D01*
%TO.C,R1*%
X129130000Y-67230000D02*
X129130000Y-73770000D01*
X129130000Y-73770000D02*
X131870000Y-73770000D01*
X130500000Y-66460000D02*
X130500000Y-67230000D01*
X130500000Y-74540000D02*
X130500000Y-73770000D01*
X131870000Y-67230000D02*
X129130000Y-67230000D01*
X131870000Y-73770000D02*
X131870000Y-67230000D01*
D11*
%TO.C,Q1*%
X142880000Y-81502500D02*
X153120000Y-81502500D01*
X142880000Y-85947500D02*
X142880000Y-81502500D01*
X153120000Y-81502500D02*
X153120000Y-85947500D01*
X153120000Y-85947500D02*
X142880000Y-85947500D01*
D13*
X150640000Y-80840000D02*
G75*
G02*
X150440000Y-80840000I-100000J0D01*
G01*
X150440000Y-80840000D02*
G75*
G02*
X150640000Y-80840000I100000J0D01*
G01*
D12*
%TO.C,J5*%
X146610000Y-95870000D02*
X146610000Y-89130000D01*
X152390000Y-89130000D02*
X146610000Y-89130000D01*
X152390000Y-89650000D02*
X146610000Y-89650000D01*
X152390000Y-94750000D02*
X146610000Y-94750000D01*
X152390000Y-95870000D02*
X146610000Y-95870000D01*
X152390000Y-95870000D02*
X152390000Y-89130000D01*
X152630000Y-88890000D02*
X152230000Y-88890000D01*
X152630000Y-89530000D02*
X152630000Y-88890000D01*
%TD*%
M02*
