%TF.GenerationSoftware,KiCad,Pcbnew,8.0.1*%
%TF.CreationDate,2024-07-20T13:09:04-07:00*%
%TF.ProjectId,Solenoid Control,536f6c65-6e6f-4696-9420-436f6e74726f,rev?*%
%TF.SameCoordinates,Original*%
%TF.FileFunction,Copper,L2,Bot*%
%TF.FilePolarity,Positive*%
%FSLAX46Y46*%
G04 Gerber Fmt 4.6, Leading zero omitted, Abs format (unit mm)*
G04 Created by KiCad (PCBNEW 8.0.1) date 2024-07-20 13:09:04*
%MOMM*%
%LPD*%
G01*
G04 APERTURE LIST*
%TA.AperFunction,ComponentPad*%
%ADD10C,1.650000*%
%TD*%
%TA.AperFunction,ComponentPad*%
%ADD11R,1.650000X1.650000*%
%TD*%
%TA.AperFunction,ComponentPad*%
%ADD12C,1.600000*%
%TD*%
%TA.AperFunction,ComponentPad*%
%ADD13R,1.500000X1.500000*%
%TD*%
%TA.AperFunction,ComponentPad*%
%ADD14R,2.100000X2.100000*%
%TD*%
%TA.AperFunction,ComponentPad*%
%ADD15C,2.100000*%
%TD*%
%TA.AperFunction,ComponentPad*%
%ADD16O,1.600000X1.600000*%
%TD*%
%TA.AperFunction,ComponentPad*%
%ADD17R,1.300000X1.300000*%
%TD*%
%TA.AperFunction,ComponentPad*%
%ADD18C,1.300000*%
%TD*%
%TA.AperFunction,ComponentPad*%
%ADD19R,1.508000X1.508000*%
%TD*%
%TA.AperFunction,ComponentPad*%
%ADD20C,1.508000*%
%TD*%
%TA.AperFunction,ComponentPad*%
%ADD21C,2.010000*%
%TD*%
%TA.AperFunction,ComponentPad*%
%ADD22R,2.010000X2.010000*%
%TD*%
G04 APERTURE END LIST*
D10*
%TO.P,D2,A*%
%TO.N,Net-(J2-Pin_1)*%
X148000000Y-75300000D03*
D11*
%TO.P,D2,C*%
%TO.N,/VCC*%
X148000000Y-64700000D03*
%TD*%
D12*
%TO.P,SW2,1,C*%
%TO.N,Net-(Q3-C)*%
X140000000Y-85580000D03*
D13*
%TO.P,SW2,2,B*%
%TO.N,Net-(Q1-G)*%
X140000000Y-83040000D03*
D12*
%TO.P,SW2,3,A*%
%TO.N,Net-(SW2-A)*%
X140000000Y-80500000D03*
%TD*%
D14*
%TO.P,J3,1,Pin_1*%
%TO.N,/VCC*%
X150000000Y-57500000D03*
D15*
%TO.P,J3,2,Pin_2*%
X147460000Y-57500000D03*
%TD*%
D12*
%TO.P,R3,1*%
%TO.N,Net-(J6-Pin_1)*%
X126000000Y-75580000D03*
D16*
%TO.P,R3,2*%
%TO.N,Net-(Q3-C)*%
X126000000Y-65420000D03*
%TD*%
D14*
%TO.P,J6,1,Pin_1*%
%TO.N,Net-(J6-Pin_1)*%
X136500000Y-58000000D03*
D15*
%TO.P,J6,2,Pin_2*%
X133960000Y-58000000D03*
%TD*%
D17*
%TO.P,Q3,1,E*%
%TO.N,/GND*%
X133000000Y-80500000D03*
D18*
%TO.P,Q3,2,C*%
%TO.N,Net-(Q3-C)*%
X134270000Y-81780000D03*
%TO.P,Q3,3,B*%
%TO.N,Net-(Q2-C)*%
X133000000Y-83040000D03*
%TD*%
D19*
%TO.P,S1,1*%
%TO.N,Net-(R1-Pad2)*%
X137250000Y-71750000D03*
D20*
%TO.P,S1,2*%
X137250000Y-65250000D03*
%TO.P,S1,3*%
%TO.N,Net-(J6-Pin_1)*%
X141750000Y-71750000D03*
%TO.P,S1,4*%
X141750000Y-65250000D03*
%TD*%
D14*
%TO.P,J1,1,Pin_1*%
%TO.N,/VCC*%
X158000000Y-64730000D03*
D15*
%TO.P,J1,2,Pin_2*%
X158000000Y-67270000D03*
%TD*%
D12*
%TO.P,R2,1*%
%TO.N,Net-(SW2-A)*%
X134420000Y-75500000D03*
D16*
%TO.P,R2,2*%
%TO.N,/GND*%
X144580000Y-75500000D03*
%TD*%
D17*
%TO.P,Q2,1,E*%
%TO.N,/GND*%
X131720000Y-89500000D03*
D18*
%TO.P,Q2,2,C*%
%TO.N,Net-(Q2-C)*%
X133000000Y-88230000D03*
%TO.P,Q2,3,B*%
%TO.N,Net-(Q2-B)*%
X134260000Y-89500000D03*
%TD*%
D14*
%TO.P,J4,1,Pin_1*%
%TO.N,/GND*%
X158770000Y-92500000D03*
D15*
%TO.P,J4,2,Pin_2*%
X156230000Y-92500000D03*
%TD*%
D12*
%TO.P,R5,1*%
%TO.N,Net-(Q2-B)*%
X134420000Y-95500000D03*
D16*
%TO.P,R5,2*%
%TO.N,Net-(J5-Pin_1)*%
X144580000Y-95500000D03*
%TD*%
D12*
%TO.P,R4,1*%
%TO.N,Net-(J6-Pin_1)*%
X126000000Y-80920000D03*
D16*
%TO.P,R4,2*%
%TO.N,Net-(Q2-C)*%
X126000000Y-91080000D03*
%TD*%
D14*
%TO.P,J2,1,Pin_1*%
%TO.N,Net-(J2-Pin_1)*%
X158000000Y-75230000D03*
D15*
%TO.P,J2,2,Pin_2*%
X158000000Y-77770000D03*
%TD*%
D12*
%TO.P,R1,1*%
%TO.N,Net-(SW2-A)*%
X130500000Y-75580000D03*
D16*
%TO.P,R1,2*%
%TO.N,Net-(R1-Pad2)*%
X130500000Y-65420000D03*
%TD*%
D21*
%TO.P,Q1,1,D*%
%TO.N,Net-(J2-Pin_1)*%
X148000000Y-83040000D03*
%TO.P,Q1,2,G*%
%TO.N,Net-(Q1-G)*%
X145460000Y-83040000D03*
D22*
%TO.P,Q1,3,S*%
%TO.N,/GND*%
X150540000Y-83040000D03*
%TD*%
D14*
%TO.P,J5,1,Pin_1*%
%TO.N,Net-(J5-Pin_1)*%
X150770000Y-92500000D03*
D15*
%TO.P,J5,2,Pin_2*%
X148230000Y-92500000D03*
%TD*%
%TA.AperFunction,Conductor*%
%TO.N,/GND*%
G36*
X161943039Y-52519685D02*
G01*
X161988794Y-52572489D01*
X162000000Y-52624000D01*
X162000000Y-98376000D01*
X161980315Y-98443039D01*
X161927511Y-98488794D01*
X161876000Y-98500000D01*
X123622660Y-98500000D01*
X123555621Y-98480315D01*
X123509866Y-98427511D01*
X123498667Y-98377348D01*
X123467391Y-95500001D01*
X133114532Y-95500001D01*
X133134364Y-95726686D01*
X133134366Y-95726697D01*
X133193258Y-95946488D01*
X133193261Y-95946497D01*
X133289431Y-96152732D01*
X133289432Y-96152734D01*
X133419954Y-96339141D01*
X133580858Y-96500045D01*
X133580861Y-96500047D01*
X133767266Y-96630568D01*
X133973504Y-96726739D01*
X134193308Y-96785635D01*
X134355230Y-96799801D01*
X134419998Y-96805468D01*
X134420000Y-96805468D01*
X134420002Y-96805468D01*
X134476673Y-96800509D01*
X134646692Y-96785635D01*
X134866496Y-96726739D01*
X135072734Y-96630568D01*
X135259139Y-96500047D01*
X135420047Y-96339139D01*
X135550568Y-96152734D01*
X135646739Y-95946496D01*
X135705635Y-95726692D01*
X135725468Y-95500001D01*
X143274532Y-95500001D01*
X143294364Y-95726686D01*
X143294366Y-95726697D01*
X143353258Y-95946488D01*
X143353261Y-95946497D01*
X143449431Y-96152732D01*
X143449432Y-96152734D01*
X143579954Y-96339141D01*
X143740858Y-96500045D01*
X143740861Y-96500047D01*
X143927266Y-96630568D01*
X144133504Y-96726739D01*
X144353308Y-96785635D01*
X144515230Y-96799801D01*
X144579998Y-96805468D01*
X144580000Y-96805468D01*
X144580002Y-96805468D01*
X144636673Y-96800509D01*
X144806692Y-96785635D01*
X145026496Y-96726739D01*
X145232734Y-96630568D01*
X145419139Y-96500047D01*
X145580047Y-96339139D01*
X145710568Y-96152734D01*
X145806739Y-95946496D01*
X145865635Y-95726692D01*
X145885468Y-95500000D01*
X145865635Y-95273308D01*
X145806739Y-95053504D01*
X145710568Y-94847266D01*
X145580047Y-94660861D01*
X145580045Y-94660858D01*
X145419141Y-94499954D01*
X145232734Y-94369432D01*
X145232732Y-94369431D01*
X145026497Y-94273261D01*
X145026488Y-94273258D01*
X144806697Y-94214366D01*
X144806693Y-94214365D01*
X144806692Y-94214365D01*
X144806691Y-94214364D01*
X144806686Y-94214364D01*
X144580002Y-94194532D01*
X144579998Y-94194532D01*
X144353313Y-94214364D01*
X144353302Y-94214366D01*
X144133511Y-94273258D01*
X144133502Y-94273261D01*
X143927267Y-94369431D01*
X143927265Y-94369432D01*
X143740858Y-94499954D01*
X143579954Y-94660858D01*
X143449432Y-94847265D01*
X143449431Y-94847267D01*
X143353261Y-95053502D01*
X143353258Y-95053511D01*
X143294366Y-95273302D01*
X143294364Y-95273313D01*
X143274532Y-95499998D01*
X143274532Y-95500001D01*
X135725468Y-95500001D01*
X135725468Y-95500000D01*
X135705635Y-95273308D01*
X135646739Y-95053504D01*
X135550568Y-94847266D01*
X135420047Y-94660861D01*
X135420045Y-94660858D01*
X135259141Y-94499954D01*
X135072734Y-94369432D01*
X135072732Y-94369431D01*
X134866497Y-94273261D01*
X134866488Y-94273258D01*
X134646697Y-94214366D01*
X134646693Y-94214365D01*
X134646692Y-94214365D01*
X134646691Y-94214364D01*
X134646686Y-94214364D01*
X134420002Y-94194532D01*
X134419998Y-94194532D01*
X134193313Y-94214364D01*
X134193302Y-94214366D01*
X133973511Y-94273258D01*
X133973502Y-94273261D01*
X133767267Y-94369431D01*
X133767265Y-94369432D01*
X133580858Y-94499954D01*
X133419954Y-94660858D01*
X133289432Y-94847265D01*
X133289431Y-94847267D01*
X133193261Y-95053502D01*
X133193258Y-95053511D01*
X133134366Y-95273302D01*
X133134364Y-95273313D01*
X133114532Y-95499998D01*
X133114532Y-95500001D01*
X123467391Y-95500001D01*
X123434783Y-92500000D01*
X146674706Y-92500000D01*
X146693853Y-92743297D01*
X146750830Y-92980619D01*
X146844222Y-93206089D01*
X146971737Y-93414173D01*
X146971738Y-93414176D01*
X146971741Y-93414179D01*
X147130241Y-93599759D01*
X147273897Y-93722453D01*
X147315823Y-93758261D01*
X147315826Y-93758262D01*
X147523910Y-93885777D01*
X147749381Y-93979169D01*
X147749378Y-93979169D01*
X147749384Y-93979170D01*
X147749388Y-93979172D01*
X147986698Y-94036146D01*
X148230000Y-94055294D01*
X148473302Y-94036146D01*
X148710612Y-93979172D01*
X148936089Y-93885777D01*
X149120859Y-93772549D01*
X149188302Y-93754305D01*
X149254905Y-93775421D01*
X149284913Y-93803966D01*
X149362452Y-93907544D01*
X149362455Y-93907547D01*
X149477664Y-93993793D01*
X149477671Y-93993797D01*
X149612517Y-94044091D01*
X149612516Y-94044091D01*
X149619444Y-94044835D01*
X149672127Y-94050500D01*
X151867872Y-94050499D01*
X151927483Y-94044091D01*
X152062331Y-93993796D01*
X152177546Y-93907546D01*
X152263796Y-93792331D01*
X152314091Y-93657483D01*
X152320500Y-93597873D01*
X152320499Y-92500000D01*
X154675207Y-92500000D01*
X154694348Y-92743219D01*
X154751303Y-92980457D01*
X154844668Y-93205861D01*
X154968504Y-93407941D01*
X155706212Y-92670233D01*
X155717482Y-92712292D01*
X155789890Y-92837708D01*
X155892292Y-92940110D01*
X156017708Y-93012518D01*
X156059763Y-93023787D01*
X155322057Y-93761494D01*
X155524138Y-93885331D01*
X155749542Y-93978696D01*
X155986780Y-94035651D01*
X155986779Y-94035651D01*
X156230000Y-94054792D01*
X156473219Y-94035651D01*
X156710457Y-93978696D01*
X156935861Y-93885331D01*
X157120985Y-93771887D01*
X157188431Y-93753642D01*
X157255033Y-93774758D01*
X157285041Y-93803303D01*
X157362809Y-93907187D01*
X157362812Y-93907190D01*
X157477906Y-93993350D01*
X157477913Y-93993354D01*
X157612620Y-94043596D01*
X157612627Y-94043598D01*
X157672155Y-94049999D01*
X157672172Y-94050000D01*
X158520000Y-94050000D01*
X158520000Y-92990747D01*
X158557708Y-93012518D01*
X158697591Y-93050000D01*
X158842409Y-93050000D01*
X158982292Y-93012518D01*
X159020000Y-92990747D01*
X159020000Y-94050000D01*
X159867828Y-94050000D01*
X159867844Y-94049999D01*
X159927372Y-94043598D01*
X159927379Y-94043596D01*
X160062086Y-93993354D01*
X160062093Y-93993350D01*
X160177187Y-93907190D01*
X160177190Y-93907187D01*
X160263350Y-93792093D01*
X160263354Y-93792086D01*
X160313596Y-93657379D01*
X160313598Y-93657372D01*
X160319999Y-93597844D01*
X160320000Y-93597827D01*
X160320000Y-92750000D01*
X159260748Y-92750000D01*
X159282518Y-92712292D01*
X159320000Y-92572409D01*
X159320000Y-92427591D01*
X159282518Y-92287708D01*
X159260748Y-92250000D01*
X160320000Y-92250000D01*
X160320000Y-91402172D01*
X160319999Y-91402155D01*
X160313598Y-91342627D01*
X160313596Y-91342620D01*
X160263354Y-91207913D01*
X160263350Y-91207906D01*
X160177190Y-91092812D01*
X160177187Y-91092809D01*
X160062093Y-91006649D01*
X160062086Y-91006645D01*
X159927379Y-90956403D01*
X159927372Y-90956401D01*
X159867844Y-90950000D01*
X159020000Y-90950000D01*
X159020000Y-92009252D01*
X158982292Y-91987482D01*
X158842409Y-91950000D01*
X158697591Y-91950000D01*
X158557708Y-91987482D01*
X158520000Y-92009252D01*
X158520000Y-90950000D01*
X157672155Y-90950000D01*
X157612627Y-90956401D01*
X157612620Y-90956403D01*
X157477913Y-91006645D01*
X157477906Y-91006649D01*
X157362812Y-91092809D01*
X157285041Y-91196697D01*
X157229107Y-91238567D01*
X157159415Y-91243551D01*
X157120985Y-91228113D01*
X156935856Y-91114666D01*
X156710457Y-91021303D01*
X156473219Y-90964348D01*
X156473220Y-90964348D01*
X156230000Y-90945207D01*
X155986780Y-90964348D01*
X155749542Y-91021303D01*
X155524138Y-91114668D01*
X155322057Y-91238504D01*
X156059765Y-91976212D01*
X156017708Y-91987482D01*
X155892292Y-92059890D01*
X155789890Y-92162292D01*
X155717482Y-92287708D01*
X155706212Y-92329765D01*
X154968504Y-91592057D01*
X154844668Y-91794138D01*
X154751303Y-92019542D01*
X154694348Y-92256780D01*
X154675207Y-92500000D01*
X152320499Y-92500000D01*
X152320499Y-91402128D01*
X152314091Y-91342517D01*
X152271173Y-91227449D01*
X152263797Y-91207671D01*
X152263793Y-91207664D01*
X152177547Y-91092455D01*
X152177544Y-91092452D01*
X152062335Y-91006206D01*
X152062328Y-91006202D01*
X151927482Y-90955908D01*
X151927483Y-90955908D01*
X151867883Y-90949501D01*
X151867881Y-90949500D01*
X151867873Y-90949500D01*
X151867864Y-90949500D01*
X149672129Y-90949500D01*
X149672123Y-90949501D01*
X149612516Y-90955908D01*
X149477671Y-91006202D01*
X149477664Y-91006206D01*
X149362455Y-91092452D01*
X149284913Y-91196034D01*
X149228979Y-91237904D01*
X149159287Y-91242888D01*
X149120857Y-91227449D01*
X148936089Y-91114222D01*
X148710618Y-91020830D01*
X148710621Y-91020830D01*
X148604992Y-90995470D01*
X148473302Y-90963854D01*
X148473300Y-90963853D01*
X148473297Y-90963853D01*
X148230000Y-90944706D01*
X147986702Y-90963853D01*
X147986698Y-90963854D01*
X147810301Y-91006204D01*
X147749380Y-91020830D01*
X147523910Y-91114222D01*
X147315826Y-91241737D01*
X147315823Y-91241738D01*
X147130241Y-91400241D01*
X146971738Y-91585823D01*
X146971737Y-91585826D01*
X146844222Y-91793910D01*
X146750830Y-92019380D01*
X146693853Y-92256702D01*
X146674706Y-92500000D01*
X123434783Y-92500000D01*
X123419348Y-91080001D01*
X124694532Y-91080001D01*
X124714364Y-91306686D01*
X124714366Y-91306697D01*
X124773258Y-91526488D01*
X124773261Y-91526497D01*
X124869431Y-91732732D01*
X124869432Y-91732734D01*
X124999954Y-91919141D01*
X125160858Y-92080045D01*
X125160861Y-92080047D01*
X125347266Y-92210568D01*
X125553504Y-92306739D01*
X125773308Y-92365635D01*
X125935230Y-92379801D01*
X125999998Y-92385468D01*
X126000000Y-92385468D01*
X126000002Y-92385468D01*
X126056673Y-92380509D01*
X126226692Y-92365635D01*
X126446496Y-92306739D01*
X126652734Y-92210568D01*
X126839139Y-92080047D01*
X127000047Y-91919139D01*
X127130568Y-91732734D01*
X127226739Y-91526496D01*
X127285635Y-91306692D01*
X127305468Y-91080000D01*
X127285635Y-90853308D01*
X127226739Y-90633504D01*
X127130568Y-90427266D01*
X127000047Y-90240861D01*
X127000045Y-90240858D01*
X126957031Y-90197844D01*
X130570000Y-90197844D01*
X130576401Y-90257372D01*
X130576403Y-90257379D01*
X130626645Y-90392086D01*
X130626649Y-90392093D01*
X130712809Y-90507187D01*
X130712812Y-90507190D01*
X130827906Y-90593350D01*
X130827913Y-90593354D01*
X130962620Y-90643596D01*
X130962627Y-90643598D01*
X131022155Y-90649999D01*
X131022172Y-90650000D01*
X131470000Y-90650000D01*
X131470000Y-89780330D01*
X131489745Y-89800075D01*
X131575255Y-89849444D01*
X131670630Y-89875000D01*
X131769370Y-89875000D01*
X131864745Y-89849444D01*
X131950255Y-89800075D01*
X131970000Y-89780330D01*
X131970000Y-90650000D01*
X132417828Y-90650000D01*
X132417844Y-90649999D01*
X132477372Y-90643598D01*
X132477379Y-90643596D01*
X132612086Y-90593354D01*
X132612093Y-90593350D01*
X132727187Y-90507190D01*
X132727190Y-90507187D01*
X132813350Y-90392093D01*
X132813354Y-90392086D01*
X132863596Y-90257379D01*
X132863598Y-90257372D01*
X132869999Y-90197844D01*
X132870000Y-90197827D01*
X132870000Y-89650657D01*
X132889685Y-89583618D01*
X132942489Y-89537863D01*
X133011647Y-89527919D01*
X133075203Y-89556944D01*
X133112977Y-89615722D01*
X133117471Y-89639216D01*
X133124244Y-89712310D01*
X133182596Y-89917392D01*
X133182596Y-89917394D01*
X133277632Y-90108253D01*
X133277634Y-90108255D01*
X133406128Y-90278407D01*
X133563698Y-90422052D01*
X133744981Y-90534298D01*
X133943802Y-90611321D01*
X134153390Y-90650500D01*
X134153392Y-90650500D01*
X134366608Y-90650500D01*
X134366610Y-90650500D01*
X134576198Y-90611321D01*
X134775019Y-90534298D01*
X134956302Y-90422052D01*
X135113872Y-90278407D01*
X135242366Y-90108255D01*
X135321450Y-89949432D01*
X135337403Y-89917394D01*
X135337403Y-89917393D01*
X135337405Y-89917389D01*
X135395756Y-89712310D01*
X135415429Y-89500000D01*
X135395756Y-89287690D01*
X135337405Y-89082611D01*
X135337403Y-89082606D01*
X135337403Y-89082605D01*
X135242367Y-88891746D01*
X135113872Y-88721593D01*
X135108267Y-88716483D01*
X134956302Y-88577948D01*
X134775019Y-88465702D01*
X134775017Y-88465701D01*
X134622574Y-88406645D01*
X134576198Y-88388679D01*
X134366610Y-88349500D01*
X134279429Y-88349500D01*
X134212390Y-88329815D01*
X134166635Y-88277011D01*
X134157616Y-88235554D01*
X134155958Y-88235708D01*
X134154187Y-88216599D01*
X134135756Y-88017690D01*
X134077405Y-87812611D01*
X134077403Y-87812606D01*
X134077403Y-87812605D01*
X133982367Y-87621746D01*
X133853872Y-87451593D01*
X133696302Y-87307948D01*
X133515019Y-87195702D01*
X133515017Y-87195701D01*
X133415608Y-87157190D01*
X133316198Y-87118679D01*
X133106610Y-87079500D01*
X132893390Y-87079500D01*
X132683802Y-87118679D01*
X132683799Y-87118679D01*
X132683799Y-87118680D01*
X132484982Y-87195701D01*
X132484980Y-87195702D01*
X132303699Y-87307947D01*
X132146127Y-87451593D01*
X132017632Y-87621746D01*
X131922596Y-87812605D01*
X131922596Y-87812607D01*
X131922595Y-87812611D01*
X131864244Y-88017690D01*
X131844571Y-88230000D01*
X131864244Y-88442310D01*
X131922595Y-88647389D01*
X131957000Y-88716485D01*
X131970000Y-88771755D01*
X131970000Y-89219670D01*
X131950255Y-89199925D01*
X131864745Y-89150556D01*
X131769370Y-89125000D01*
X131670630Y-89125000D01*
X131575255Y-89150556D01*
X131489745Y-89199925D01*
X131470000Y-89219670D01*
X131470000Y-88350000D01*
X131022155Y-88350000D01*
X130962627Y-88356401D01*
X130962620Y-88356403D01*
X130827913Y-88406645D01*
X130827906Y-88406649D01*
X130712812Y-88492809D01*
X130712809Y-88492812D01*
X130626649Y-88607906D01*
X130626645Y-88607913D01*
X130576403Y-88742620D01*
X130576401Y-88742627D01*
X130570000Y-88802155D01*
X130570000Y-89250000D01*
X131439670Y-89250000D01*
X131419925Y-89269745D01*
X131370556Y-89355255D01*
X131345000Y-89450630D01*
X131345000Y-89549370D01*
X131370556Y-89644745D01*
X131419925Y-89730255D01*
X131439670Y-89750000D01*
X130570000Y-89750000D01*
X130570000Y-90197844D01*
X126957031Y-90197844D01*
X126839141Y-90079954D01*
X126652734Y-89949432D01*
X126652732Y-89949431D01*
X126446497Y-89853261D01*
X126446488Y-89853258D01*
X126226697Y-89794366D01*
X126226693Y-89794365D01*
X126226692Y-89794365D01*
X126226691Y-89794364D01*
X126226686Y-89794364D01*
X126000002Y-89774532D01*
X125999998Y-89774532D01*
X125773313Y-89794364D01*
X125773302Y-89794366D01*
X125553511Y-89853258D01*
X125553502Y-89853261D01*
X125347267Y-89949431D01*
X125347265Y-89949432D01*
X125160858Y-90079954D01*
X124999954Y-90240858D01*
X124869432Y-90427265D01*
X124869431Y-90427267D01*
X124773261Y-90633502D01*
X124773258Y-90633511D01*
X124714366Y-90853302D01*
X124714364Y-90853313D01*
X124694532Y-91079998D01*
X124694532Y-91080001D01*
X123419348Y-91080001D01*
X123359565Y-85580001D01*
X138694532Y-85580001D01*
X138714364Y-85806686D01*
X138714366Y-85806697D01*
X138773258Y-86026488D01*
X138773261Y-86026497D01*
X138869431Y-86232732D01*
X138869432Y-86232734D01*
X138999954Y-86419141D01*
X139160858Y-86580045D01*
X139160861Y-86580047D01*
X139347266Y-86710568D01*
X139553504Y-86806739D01*
X139773308Y-86865635D01*
X139935230Y-86879801D01*
X139999998Y-86885468D01*
X140000000Y-86885468D01*
X140000002Y-86885468D01*
X140056673Y-86880509D01*
X140226692Y-86865635D01*
X140446496Y-86806739D01*
X140652734Y-86710568D01*
X140839139Y-86580047D01*
X141000047Y-86419139D01*
X141130568Y-86232734D01*
X141226739Y-86026496D01*
X141285635Y-85806692D01*
X141305468Y-85580000D01*
X141285635Y-85353308D01*
X141226739Y-85133504D01*
X141130568Y-84927266D01*
X141000047Y-84740861D01*
X141000045Y-84740858D01*
X140839141Y-84579954D01*
X140745978Y-84514721D01*
X140702353Y-84460144D01*
X140695159Y-84390646D01*
X140726682Y-84328291D01*
X140786911Y-84292877D01*
X140803842Y-84289857D01*
X140857483Y-84284091D01*
X140992331Y-84233796D01*
X141107546Y-84147546D01*
X141193796Y-84032331D01*
X141244091Y-83897483D01*
X141250500Y-83837873D01*
X141250499Y-83040000D01*
X143949845Y-83040000D01*
X143968438Y-83276243D01*
X144023754Y-83506654D01*
X144023758Y-83506666D01*
X144114441Y-83725596D01*
X144238255Y-83927642D01*
X144238256Y-83927644D01*
X144283147Y-83980204D01*
X144392159Y-84107841D01*
X144525377Y-84221620D01*
X144572355Y-84261743D01*
X144572357Y-84261744D01*
X144774403Y-84385558D01*
X144814557Y-84402190D01*
X144993336Y-84476243D01*
X145223760Y-84531562D01*
X145460000Y-84550155D01*
X145696240Y-84531562D01*
X145926664Y-84476243D01*
X146145596Y-84385558D01*
X146347647Y-84261741D01*
X146527841Y-84107841D01*
X146635710Y-83981541D01*
X146694217Y-83943349D01*
X146764084Y-83942850D01*
X146823131Y-83980204D01*
X146824262Y-83981510D01*
X146932159Y-84107841D01*
X147065377Y-84221620D01*
X147112355Y-84261743D01*
X147112357Y-84261744D01*
X147314403Y-84385558D01*
X147354557Y-84402190D01*
X147533336Y-84476243D01*
X147763760Y-84531562D01*
X148000000Y-84550155D01*
X148236240Y-84531562D01*
X148466664Y-84476243D01*
X148685596Y-84385558D01*
X148887647Y-84261741D01*
X148901170Y-84250190D01*
X148964928Y-84221620D01*
X149034014Y-84232055D01*
X149086491Y-84278184D01*
X149090530Y-84285046D01*
X149091644Y-84287087D01*
X149177809Y-84402187D01*
X149177812Y-84402190D01*
X149292906Y-84488350D01*
X149292913Y-84488354D01*
X149427620Y-84538596D01*
X149427627Y-84538598D01*
X149487155Y-84544999D01*
X149487172Y-84545000D01*
X150290000Y-84545000D01*
X150290000Y-83661649D01*
X150344568Y-83684252D01*
X150474011Y-83710000D01*
X150605989Y-83710000D01*
X150735432Y-83684252D01*
X150790000Y-83661649D01*
X150790000Y-84545000D01*
X151592828Y-84545000D01*
X151592844Y-84544999D01*
X151652372Y-84538598D01*
X151652379Y-84538596D01*
X151787086Y-84488354D01*
X151787093Y-84488350D01*
X151902187Y-84402190D01*
X151902190Y-84402187D01*
X151988350Y-84287093D01*
X151988354Y-84287086D01*
X152038596Y-84152379D01*
X152038598Y-84152372D01*
X152044999Y-84092844D01*
X152045000Y-84092827D01*
X152045000Y-83290000D01*
X151161649Y-83290000D01*
X151184252Y-83235432D01*
X151210000Y-83105989D01*
X151210000Y-82974011D01*
X151184252Y-82844568D01*
X151161649Y-82790000D01*
X152045000Y-82790000D01*
X152045000Y-81987172D01*
X152044999Y-81987155D01*
X152038598Y-81927627D01*
X152038596Y-81927620D01*
X151988354Y-81792913D01*
X151988350Y-81792906D01*
X151902190Y-81677812D01*
X151902187Y-81677809D01*
X151787093Y-81591649D01*
X151787086Y-81591645D01*
X151652379Y-81541403D01*
X151652372Y-81541401D01*
X151592844Y-81535000D01*
X150790000Y-81535000D01*
X150790000Y-82418350D01*
X150735432Y-82395748D01*
X150605989Y-82370000D01*
X150474011Y-82370000D01*
X150344568Y-82395748D01*
X150290000Y-82418350D01*
X150290000Y-81535000D01*
X149487155Y-81535000D01*
X149427627Y-81541401D01*
X149427620Y-81541403D01*
X149292913Y-81591645D01*
X149292906Y-81591649D01*
X149177812Y-81677809D01*
X149177809Y-81677812D01*
X149091645Y-81792911D01*
X149090533Y-81794949D01*
X149088892Y-81796589D01*
X149086331Y-81800011D01*
X149085839Y-81799642D01*
X149041126Y-81844353D01*
X148972853Y-81859203D01*
X148907389Y-81834784D01*
X148901171Y-81829809D01*
X148887649Y-81818260D01*
X148887644Y-81818257D01*
X148685596Y-81694441D01*
X148466666Y-81603758D01*
X148466668Y-81603758D01*
X148466664Y-81603757D01*
X148466660Y-81603756D01*
X148466654Y-81603754D01*
X148236243Y-81548438D01*
X148000000Y-81529845D01*
X147763756Y-81548438D01*
X147533345Y-81603754D01*
X147533333Y-81603758D01*
X147314403Y-81694441D01*
X147112357Y-81818255D01*
X147112355Y-81818256D01*
X146978646Y-81932455D01*
X146932159Y-81972159D01*
X146865192Y-82050568D01*
X146824290Y-82098458D01*
X146765783Y-82136651D01*
X146695916Y-82137150D01*
X146636869Y-82099796D01*
X146635710Y-82098458D01*
X146527841Y-81972159D01*
X146380369Y-81846206D01*
X146347644Y-81818256D01*
X146347642Y-81818255D01*
X146145596Y-81694441D01*
X145926666Y-81603758D01*
X145926668Y-81603758D01*
X145926664Y-81603757D01*
X145926660Y-81603756D01*
X145926654Y-81603754D01*
X145696243Y-81548438D01*
X145460000Y-81529845D01*
X145223756Y-81548438D01*
X144993345Y-81603754D01*
X144993333Y-81603758D01*
X144774403Y-81694441D01*
X144572357Y-81818255D01*
X144572355Y-81818256D01*
X144392159Y-81972159D01*
X144238256Y-82152355D01*
X144238255Y-82152357D01*
X144114441Y-82354403D01*
X144023758Y-82573333D01*
X144023754Y-82573345D01*
X143968438Y-82803756D01*
X143949845Y-83040000D01*
X141250499Y-83040000D01*
X141250499Y-82242128D01*
X141244091Y-82182517D01*
X141232841Y-82152355D01*
X141193797Y-82047671D01*
X141193793Y-82047664D01*
X141107547Y-81932455D01*
X141107544Y-81932452D01*
X140992335Y-81846206D01*
X140992328Y-81846202D01*
X140857482Y-81795908D01*
X140857483Y-81795908D01*
X140803846Y-81790142D01*
X140739295Y-81763404D01*
X140699446Y-81706012D01*
X140696953Y-81636187D01*
X140732605Y-81576098D01*
X140745972Y-81565282D01*
X140839139Y-81500047D01*
X141000047Y-81339139D01*
X141130568Y-81152734D01*
X141226739Y-80946496D01*
X141285635Y-80726692D01*
X141305468Y-80500000D01*
X141285635Y-80273308D01*
X141234069Y-80080861D01*
X141226741Y-80053511D01*
X141226738Y-80053502D01*
X141164463Y-79919954D01*
X141130568Y-79847266D01*
X141000047Y-79660861D01*
X141000045Y-79660858D01*
X140839141Y-79499954D01*
X140652734Y-79369432D01*
X140652732Y-79369431D01*
X140446497Y-79273261D01*
X140446488Y-79273258D01*
X140226697Y-79214366D01*
X140226693Y-79214365D01*
X140226692Y-79214365D01*
X140226691Y-79214364D01*
X140226686Y-79214364D01*
X140000002Y-79194532D01*
X139999998Y-79194532D01*
X139773313Y-79214364D01*
X139773302Y-79214366D01*
X139553511Y-79273258D01*
X139553502Y-79273261D01*
X139347267Y-79369431D01*
X139347265Y-79369432D01*
X139160858Y-79499954D01*
X138999954Y-79660858D01*
X138869432Y-79847265D01*
X138869431Y-79847267D01*
X138773261Y-80053502D01*
X138773258Y-80053511D01*
X138714366Y-80273302D01*
X138714364Y-80273313D01*
X138694532Y-80499998D01*
X138694532Y-80500001D01*
X138714364Y-80726686D01*
X138714366Y-80726697D01*
X138773258Y-80946488D01*
X138773261Y-80946497D01*
X138869431Y-81152732D01*
X138869432Y-81152734D01*
X138999954Y-81339141D01*
X139160858Y-81500045D01*
X139254021Y-81565278D01*
X139297646Y-81619854D01*
X139304840Y-81689353D01*
X139273317Y-81751708D01*
X139213088Y-81787122D01*
X139196152Y-81790143D01*
X139142516Y-81795908D01*
X139007671Y-81846202D01*
X139007664Y-81846206D01*
X138892455Y-81932452D01*
X138892452Y-81932455D01*
X138806206Y-82047664D01*
X138806202Y-82047671D01*
X138755908Y-82182517D01*
X138753423Y-82205635D01*
X138749501Y-82242123D01*
X138749500Y-82242135D01*
X138749500Y-83837870D01*
X138749501Y-83837876D01*
X138755908Y-83897483D01*
X138806202Y-84032328D01*
X138806206Y-84032335D01*
X138892452Y-84147544D01*
X138892455Y-84147547D01*
X139007664Y-84233793D01*
X139007671Y-84233797D01*
X139051629Y-84250192D01*
X139142517Y-84284091D01*
X139196157Y-84289858D01*
X139260703Y-84316594D01*
X139300552Y-84373986D01*
X139303047Y-84443811D01*
X139267395Y-84503900D01*
X139254022Y-84514721D01*
X139160856Y-84579956D01*
X138999954Y-84740858D01*
X138869432Y-84927265D01*
X138869431Y-84927267D01*
X138773261Y-85133502D01*
X138773258Y-85133511D01*
X138714366Y-85353302D01*
X138714364Y-85353313D01*
X138694532Y-85579998D01*
X138694532Y-85580001D01*
X123359565Y-85580001D01*
X123347868Y-84503900D01*
X123331956Y-83040000D01*
X131844571Y-83040000D01*
X131864244Y-83252310D01*
X131922596Y-83457392D01*
X131922596Y-83457394D01*
X132017632Y-83648253D01*
X132146127Y-83818406D01*
X132146128Y-83818407D01*
X132303698Y-83962052D01*
X132484981Y-84074298D01*
X132683802Y-84151321D01*
X132893390Y-84190500D01*
X132893392Y-84190500D01*
X133106608Y-84190500D01*
X133106610Y-84190500D01*
X133316198Y-84151321D01*
X133515019Y-84074298D01*
X133696302Y-83962052D01*
X133853872Y-83818407D01*
X133982366Y-83648255D01*
X134026101Y-83560423D01*
X134077403Y-83457394D01*
X134077403Y-83457393D01*
X134077405Y-83457389D01*
X134135756Y-83252310D01*
X134155146Y-83043059D01*
X134180932Y-82978121D01*
X134237733Y-82937434D01*
X134278617Y-82930500D01*
X134376608Y-82930500D01*
X134376610Y-82930500D01*
X134586198Y-82891321D01*
X134785019Y-82814298D01*
X134966302Y-82702052D01*
X135123872Y-82558407D01*
X135252366Y-82388255D01*
X135315436Y-82261593D01*
X135347403Y-82197394D01*
X135347403Y-82197393D01*
X135347405Y-82197389D01*
X135405756Y-81992310D01*
X135425429Y-81780000D01*
X135405756Y-81567690D01*
X135347405Y-81362611D01*
X135347403Y-81362606D01*
X135347403Y-81362605D01*
X135252367Y-81171746D01*
X135123872Y-81001593D01*
X135034367Y-80919998D01*
X134966302Y-80857948D01*
X134785019Y-80745702D01*
X134785017Y-80745701D01*
X134649758Y-80693302D01*
X134586198Y-80668679D01*
X134376610Y-80629500D01*
X134163390Y-80629500D01*
X133953802Y-80668679D01*
X133765497Y-80741627D01*
X133720708Y-80750000D01*
X133280330Y-80750000D01*
X133300075Y-80730255D01*
X133349444Y-80644745D01*
X133375000Y-80549370D01*
X133375000Y-80450630D01*
X133349444Y-80355255D01*
X133300075Y-80269745D01*
X133280330Y-80250000D01*
X134150000Y-80250000D01*
X134150000Y-79802172D01*
X134149999Y-79802155D01*
X134143598Y-79742627D01*
X134143596Y-79742620D01*
X134093354Y-79607913D01*
X134093350Y-79607906D01*
X134007190Y-79492812D01*
X134007187Y-79492809D01*
X133892093Y-79406649D01*
X133892086Y-79406645D01*
X133757379Y-79356403D01*
X133757372Y-79356401D01*
X133697844Y-79350000D01*
X133250000Y-79350000D01*
X133250000Y-80219670D01*
X133230255Y-80199925D01*
X133144745Y-80150556D01*
X133049370Y-80125000D01*
X132950630Y-80125000D01*
X132855255Y-80150556D01*
X132769745Y-80199925D01*
X132750000Y-80219670D01*
X132750000Y-79350000D01*
X132302155Y-79350000D01*
X132242627Y-79356401D01*
X132242620Y-79356403D01*
X132107913Y-79406645D01*
X132107906Y-79406649D01*
X131992812Y-79492809D01*
X131992809Y-79492812D01*
X131906649Y-79607906D01*
X131906645Y-79607913D01*
X131856403Y-79742620D01*
X131856401Y-79742627D01*
X131850000Y-79802155D01*
X131850000Y-80250000D01*
X132719670Y-80250000D01*
X132699925Y-80269745D01*
X132650556Y-80355255D01*
X132625000Y-80450630D01*
X132625000Y-80549370D01*
X132650556Y-80644745D01*
X132699925Y-80730255D01*
X132719670Y-80750000D01*
X131850000Y-80750000D01*
X131850000Y-81197844D01*
X131856401Y-81257372D01*
X131856403Y-81257379D01*
X131906645Y-81392086D01*
X131906649Y-81392093D01*
X131992809Y-81507187D01*
X131992812Y-81507190D01*
X132107906Y-81593350D01*
X132107913Y-81593354D01*
X132242620Y-81643596D01*
X132242627Y-81643598D01*
X132302155Y-81649999D01*
X132302172Y-81650000D01*
X132836429Y-81650000D01*
X132903468Y-81669685D01*
X132949223Y-81722489D01*
X132959167Y-81791647D01*
X132930142Y-81855203D01*
X132871364Y-81892977D01*
X132859220Y-81895887D01*
X132683802Y-81928679D01*
X132683799Y-81928679D01*
X132683799Y-81928680D01*
X132484982Y-82005701D01*
X132484980Y-82005702D01*
X132303699Y-82117947D01*
X132146127Y-82261593D01*
X132017632Y-82431746D01*
X131922596Y-82622605D01*
X131922596Y-82622607D01*
X131864244Y-82827689D01*
X131844571Y-83039999D01*
X131844571Y-83040000D01*
X123331956Y-83040000D01*
X123308913Y-80920001D01*
X124694532Y-80920001D01*
X124714364Y-81146686D01*
X124714366Y-81146697D01*
X124773258Y-81366488D01*
X124773261Y-81366497D01*
X124869431Y-81572732D01*
X124869432Y-81572734D01*
X124999954Y-81759141D01*
X125160858Y-81920045D01*
X125160861Y-81920047D01*
X125347266Y-82050568D01*
X125553504Y-82146739D01*
X125553509Y-82146740D01*
X125553511Y-82146741D01*
X125606415Y-82160916D01*
X125773308Y-82205635D01*
X125935230Y-82219801D01*
X125999998Y-82225468D01*
X126000000Y-82225468D01*
X126000002Y-82225468D01*
X126056673Y-82220509D01*
X126226692Y-82205635D01*
X126446496Y-82146739D01*
X126652734Y-82050568D01*
X126839139Y-81920047D01*
X127000047Y-81759139D01*
X127130568Y-81572734D01*
X127226739Y-81366496D01*
X127285635Y-81146692D01*
X127305468Y-80920000D01*
X127285635Y-80693308D01*
X127226739Y-80473504D01*
X127130568Y-80267266D01*
X127000047Y-80080861D01*
X127000045Y-80080858D01*
X126839141Y-79919954D01*
X126652734Y-79789432D01*
X126652732Y-79789431D01*
X126446497Y-79693261D01*
X126446488Y-79693258D01*
X126226697Y-79634366D01*
X126226693Y-79634365D01*
X126226692Y-79634365D01*
X126226691Y-79634364D01*
X126226686Y-79634364D01*
X126000002Y-79614532D01*
X125999998Y-79614532D01*
X125773313Y-79634364D01*
X125773302Y-79634366D01*
X125553511Y-79693258D01*
X125553502Y-79693261D01*
X125347267Y-79789431D01*
X125347265Y-79789432D01*
X125160858Y-79919954D01*
X124999954Y-80080858D01*
X124869432Y-80267265D01*
X124869431Y-80267267D01*
X124773261Y-80473502D01*
X124773258Y-80473511D01*
X124714366Y-80693302D01*
X124714364Y-80693313D01*
X124694532Y-80919998D01*
X124694532Y-80920001D01*
X123308913Y-80920001D01*
X123274674Y-77770000D01*
X156444706Y-77770000D01*
X156463853Y-78013297D01*
X156520830Y-78250619D01*
X156614222Y-78476089D01*
X156741737Y-78684173D01*
X156741738Y-78684176D01*
X156741741Y-78684179D01*
X156900241Y-78869759D01*
X157043897Y-78992453D01*
X157085823Y-79028261D01*
X157085826Y-79028262D01*
X157293910Y-79155777D01*
X157519381Y-79249169D01*
X157519378Y-79249169D01*
X157519384Y-79249170D01*
X157519388Y-79249172D01*
X157756698Y-79306146D01*
X158000000Y-79325294D01*
X158243302Y-79306146D01*
X158480612Y-79249172D01*
X158706089Y-79155777D01*
X158914179Y-79028259D01*
X159099759Y-78869759D01*
X159258259Y-78684179D01*
X159385777Y-78476089D01*
X159479172Y-78250612D01*
X159536146Y-78013302D01*
X159555294Y-77770000D01*
X159536146Y-77526698D01*
X159479172Y-77289388D01*
X159385777Y-77063911D01*
X159385777Y-77063910D01*
X159272550Y-76879142D01*
X159254305Y-76811697D01*
X159275421Y-76745094D01*
X159303962Y-76715088D01*
X159407546Y-76637546D01*
X159493796Y-76522331D01*
X159544091Y-76387483D01*
X159550500Y-76327873D01*
X159550499Y-74132128D01*
X159544091Y-74072517D01*
X159535573Y-74049680D01*
X159493797Y-73937671D01*
X159493793Y-73937664D01*
X159407547Y-73822455D01*
X159407544Y-73822452D01*
X159292335Y-73736206D01*
X159292328Y-73736202D01*
X159157482Y-73685908D01*
X159157483Y-73685908D01*
X159097883Y-73679501D01*
X159097881Y-73679500D01*
X159097873Y-73679500D01*
X159097864Y-73679500D01*
X156902129Y-73679500D01*
X156902123Y-73679501D01*
X156842516Y-73685908D01*
X156707671Y-73736202D01*
X156707664Y-73736206D01*
X156592455Y-73822452D01*
X156592452Y-73822455D01*
X156506206Y-73937664D01*
X156506202Y-73937671D01*
X156455908Y-74072517D01*
X156449501Y-74132116D01*
X156449501Y-74132123D01*
X156449500Y-74132135D01*
X156449500Y-76327870D01*
X156449501Y-76327876D01*
X156455908Y-76387483D01*
X156506202Y-76522328D01*
X156506206Y-76522335D01*
X156592452Y-76637544D01*
X156592455Y-76637547D01*
X156696033Y-76715086D01*
X156737904Y-76771019D01*
X156742888Y-76840711D01*
X156727449Y-76879142D01*
X156614222Y-77063910D01*
X156520830Y-77289380D01*
X156463853Y-77526702D01*
X156444706Y-77770000D01*
X123274674Y-77770000D01*
X123250869Y-75580001D01*
X124694532Y-75580001D01*
X124714364Y-75806686D01*
X124714366Y-75806697D01*
X124773258Y-76026488D01*
X124773261Y-76026497D01*
X124869431Y-76232732D01*
X124869432Y-76232734D01*
X124999954Y-76419141D01*
X125160858Y-76580045D01*
X125160861Y-76580047D01*
X125347266Y-76710568D01*
X125553504Y-76806739D01*
X125553509Y-76806740D01*
X125553511Y-76806741D01*
X125606415Y-76820916D01*
X125773308Y-76865635D01*
X125927694Y-76879142D01*
X125999998Y-76885468D01*
X126000000Y-76885468D01*
X126000002Y-76885468D01*
X126072306Y-76879142D01*
X126226692Y-76865635D01*
X126446496Y-76806739D01*
X126652734Y-76710568D01*
X126839139Y-76580047D01*
X127000047Y-76419139D01*
X127130568Y-76232734D01*
X127226739Y-76026496D01*
X127285635Y-75806692D01*
X127305468Y-75580001D01*
X129194532Y-75580001D01*
X129214364Y-75806686D01*
X129214366Y-75806697D01*
X129273258Y-76026488D01*
X129273261Y-76026497D01*
X129369431Y-76232732D01*
X129369432Y-76232734D01*
X129499954Y-76419141D01*
X129660858Y-76580045D01*
X129660861Y-76580047D01*
X129847266Y-76710568D01*
X130053504Y-76806739D01*
X130053509Y-76806740D01*
X130053511Y-76806741D01*
X130106415Y-76820916D01*
X130273308Y-76865635D01*
X130427694Y-76879142D01*
X130499998Y-76885468D01*
X130500000Y-76885468D01*
X130500002Y-76885468D01*
X130572306Y-76879142D01*
X130726692Y-76865635D01*
X130946496Y-76806739D01*
X131152734Y-76710568D01*
X131339139Y-76580047D01*
X131500047Y-76419139D01*
X131630568Y-76232734D01*
X131726739Y-76026496D01*
X131785635Y-75806692D01*
X131805468Y-75580000D01*
X131798469Y-75500001D01*
X133114532Y-75500001D01*
X133134364Y-75726686D01*
X133134366Y-75726697D01*
X133193258Y-75946488D01*
X133193261Y-75946497D01*
X133289431Y-76152732D01*
X133289432Y-76152734D01*
X133419954Y-76339141D01*
X133580858Y-76500045D01*
X133580861Y-76500047D01*
X133767266Y-76630568D01*
X133973504Y-76726739D01*
X134193308Y-76785635D01*
X134355230Y-76799801D01*
X134419998Y-76805468D01*
X134420000Y-76805468D01*
X134420002Y-76805468D01*
X134476673Y-76800509D01*
X134646692Y-76785635D01*
X134866496Y-76726739D01*
X135072734Y-76630568D01*
X135259139Y-76500047D01*
X135420047Y-76339139D01*
X135550568Y-76152734D01*
X135646739Y-75946496D01*
X135705635Y-75726692D01*
X135725468Y-75500000D01*
X135705635Y-75273308D01*
X135699389Y-75249999D01*
X143301127Y-75249999D01*
X143301128Y-75250000D01*
X144264314Y-75250000D01*
X144259920Y-75254394D01*
X144207259Y-75345606D01*
X144180000Y-75447339D01*
X144180000Y-75552661D01*
X144207259Y-75654394D01*
X144259920Y-75745606D01*
X144264314Y-75750000D01*
X143301128Y-75750000D01*
X143353730Y-75946317D01*
X143353734Y-75946326D01*
X143449865Y-76152482D01*
X143580342Y-76338820D01*
X143741179Y-76499657D01*
X143927517Y-76630134D01*
X144133673Y-76726265D01*
X144133682Y-76726269D01*
X144329999Y-76778872D01*
X144330000Y-76778871D01*
X144330000Y-75815686D01*
X144334394Y-75820080D01*
X144425606Y-75872741D01*
X144527339Y-75900000D01*
X144632661Y-75900000D01*
X144734394Y-75872741D01*
X144825606Y-75820080D01*
X144830000Y-75815686D01*
X144830000Y-76778872D01*
X145026317Y-76726269D01*
X145026326Y-76726265D01*
X145232482Y-76630134D01*
X145418820Y-76499657D01*
X145579657Y-76338820D01*
X145710134Y-76152482D01*
X145806265Y-75946326D01*
X145806269Y-75946317D01*
X145858872Y-75750000D01*
X144895686Y-75750000D01*
X144900080Y-75745606D01*
X144952741Y-75654394D01*
X144980000Y-75552661D01*
X144980000Y-75447339D01*
X144952741Y-75345606D01*
X144926411Y-75300001D01*
X146669437Y-75300001D01*
X146689650Y-75531044D01*
X146689651Y-75531051D01*
X146749678Y-75755074D01*
X146749679Y-75755076D01*
X146749680Y-75755079D01*
X146847699Y-75965282D01*
X146980730Y-76155269D01*
X147144731Y-76319270D01*
X147334718Y-76452301D01*
X147544921Y-76550320D01*
X147768950Y-76610349D01*
X147933985Y-76624787D01*
X147999998Y-76630563D01*
X148000000Y-76630563D01*
X148000002Y-76630563D01*
X148057762Y-76625509D01*
X148231050Y-76610349D01*
X148455079Y-76550320D01*
X148665282Y-76452301D01*
X148855269Y-76319270D01*
X149019270Y-76155269D01*
X149152301Y-75965282D01*
X149250320Y-75755079D01*
X149310349Y-75531050D01*
X149330563Y-75300000D01*
X149310349Y-75068950D01*
X149250320Y-74844921D01*
X149152301Y-74634719D01*
X149152299Y-74634716D01*
X149152298Y-74634714D01*
X149019273Y-74444735D01*
X149019268Y-74444729D01*
X148855269Y-74280730D01*
X148844598Y-74273258D01*
X148665282Y-74147699D01*
X148455079Y-74049680D01*
X148455076Y-74049679D01*
X148455074Y-74049678D01*
X148231051Y-73989651D01*
X148231044Y-73989650D01*
X148000002Y-73969437D01*
X147999998Y-73969437D01*
X147768955Y-73989650D01*
X147768948Y-73989651D01*
X147544917Y-74049681D01*
X147334718Y-74147699D01*
X147334714Y-74147701D01*
X147144735Y-74280726D01*
X147144729Y-74280731D01*
X146980731Y-74444729D01*
X146980726Y-74444735D01*
X146847701Y-74634714D01*
X146847699Y-74634718D01*
X146749681Y-74844917D01*
X146689651Y-75068948D01*
X146689650Y-75068955D01*
X146669437Y-75299998D01*
X146669437Y-75300001D01*
X144926411Y-75300001D01*
X144900080Y-75254394D01*
X144895686Y-75250000D01*
X145858872Y-75250000D01*
X145858872Y-75249999D01*
X145806269Y-75053682D01*
X145806265Y-75053673D01*
X145710134Y-74847517D01*
X145579657Y-74661179D01*
X145418820Y-74500342D01*
X145232482Y-74369865D01*
X145026328Y-74273734D01*
X144830000Y-74221127D01*
X144830000Y-75184314D01*
X144825606Y-75179920D01*
X144734394Y-75127259D01*
X144632661Y-75100000D01*
X144527339Y-75100000D01*
X144425606Y-75127259D01*
X144334394Y-75179920D01*
X144330000Y-75184314D01*
X144330000Y-74221127D01*
X144133671Y-74273734D01*
X143927517Y-74369865D01*
X143741179Y-74500342D01*
X143580342Y-74661179D01*
X143449865Y-74847517D01*
X143353734Y-75053673D01*
X143353730Y-75053682D01*
X143301127Y-75249999D01*
X135699389Y-75249999D01*
X135646739Y-75053504D01*
X135550568Y-74847266D01*
X135420047Y-74660861D01*
X135420045Y-74660858D01*
X135259141Y-74499954D01*
X135072734Y-74369432D01*
X135072732Y-74369431D01*
X134866497Y-74273261D01*
X134866488Y-74273258D01*
X134646697Y-74214366D01*
X134646693Y-74214365D01*
X134646692Y-74214365D01*
X134646691Y-74214364D01*
X134646686Y-74214364D01*
X134420002Y-74194532D01*
X134419998Y-74194532D01*
X134193313Y-74214364D01*
X134193302Y-74214366D01*
X133973511Y-74273258D01*
X133973502Y-74273261D01*
X133767267Y-74369431D01*
X133767265Y-74369432D01*
X133580858Y-74499954D01*
X133419954Y-74660858D01*
X133289432Y-74847265D01*
X133289431Y-74847267D01*
X133193261Y-75053502D01*
X133193258Y-75053511D01*
X133134366Y-75273302D01*
X133134364Y-75273313D01*
X133114532Y-75499998D01*
X133114532Y-75500001D01*
X131798469Y-75500001D01*
X131785635Y-75353308D01*
X131726739Y-75133504D01*
X131630568Y-74927266D01*
X131500047Y-74740861D01*
X131500045Y-74740858D01*
X131339141Y-74579954D01*
X131152734Y-74449432D01*
X131152732Y-74449431D01*
X130946497Y-74353261D01*
X130946488Y-74353258D01*
X130726697Y-74294366D01*
X130726693Y-74294365D01*
X130726692Y-74294365D01*
X130726691Y-74294364D01*
X130726686Y-74294364D01*
X130500002Y-74274532D01*
X130499998Y-74274532D01*
X130273313Y-74294364D01*
X130273302Y-74294366D01*
X130053511Y-74353258D01*
X130053502Y-74353261D01*
X129847267Y-74449431D01*
X129847265Y-74449432D01*
X129660858Y-74579954D01*
X129499954Y-74740858D01*
X129369432Y-74927265D01*
X129369431Y-74927267D01*
X129273261Y-75133502D01*
X129273258Y-75133511D01*
X129214366Y-75353302D01*
X129214364Y-75353313D01*
X129194532Y-75579998D01*
X129194532Y-75580001D01*
X127305468Y-75580001D01*
X127305468Y-75580000D01*
X127285635Y-75353308D01*
X127226739Y-75133504D01*
X127130568Y-74927266D01*
X127000047Y-74740861D01*
X127000045Y-74740858D01*
X126839141Y-74579954D01*
X126652734Y-74449432D01*
X126652732Y-74449431D01*
X126446497Y-74353261D01*
X126446488Y-74353258D01*
X126226697Y-74294366D01*
X126226693Y-74294365D01*
X126226692Y-74294365D01*
X126226691Y-74294364D01*
X126226686Y-74294364D01*
X126000002Y-74274532D01*
X125999998Y-74274532D01*
X125773313Y-74294364D01*
X125773302Y-74294366D01*
X125553511Y-74353258D01*
X125553502Y-74353261D01*
X125347267Y-74449431D01*
X125347265Y-74449432D01*
X125160858Y-74579954D01*
X124999954Y-74740858D01*
X124869432Y-74927265D01*
X124869431Y-74927267D01*
X124773261Y-75133502D01*
X124773258Y-75133511D01*
X124714366Y-75353302D01*
X124714364Y-75353313D01*
X124694532Y-75579998D01*
X124694532Y-75580001D01*
X123250869Y-75580001D01*
X123217954Y-72551870D01*
X135995500Y-72551870D01*
X135995501Y-72551876D01*
X136001908Y-72611483D01*
X136052202Y-72746328D01*
X136052206Y-72746335D01*
X136138452Y-72861544D01*
X136138455Y-72861547D01*
X136253664Y-72947793D01*
X136253671Y-72947797D01*
X136388517Y-72998091D01*
X136388516Y-72998091D01*
X136395444Y-72998835D01*
X136448127Y-73004500D01*
X138051872Y-73004499D01*
X138111483Y-72998091D01*
X138246331Y-72947796D01*
X138361546Y-72861546D01*
X138447796Y-72746331D01*
X138498091Y-72611483D01*
X138504500Y-72551873D01*
X138504499Y-71750000D01*
X140490708Y-71750000D01*
X140509839Y-71968674D01*
X140566653Y-72180703D01*
X140566654Y-72180706D01*
X140566655Y-72180708D01*
X140659419Y-72379642D01*
X140659423Y-72379650D01*
X140785322Y-72559452D01*
X140785327Y-72559458D01*
X140940541Y-72714672D01*
X140940547Y-72714677D01*
X141120349Y-72840576D01*
X141120351Y-72840577D01*
X141120354Y-72840579D01*
X141319297Y-72933347D01*
X141531326Y-72990161D01*
X141687521Y-73003826D01*
X141749998Y-73009292D01*
X141750000Y-73009292D01*
X141750002Y-73009292D01*
X141804797Y-73004498D01*
X141968674Y-72990161D01*
X142180703Y-72933347D01*
X142379646Y-72840579D01*
X142559457Y-72714674D01*
X142714674Y-72559457D01*
X142840579Y-72379646D01*
X142933347Y-72180703D01*
X142990161Y-71968674D01*
X143009292Y-71750000D01*
X142990161Y-71531326D01*
X142933347Y-71319297D01*
X142840579Y-71120354D01*
X142840577Y-71120351D01*
X142840576Y-71120349D01*
X142714677Y-70940547D01*
X142714672Y-70940541D01*
X142559458Y-70785327D01*
X142559452Y-70785322D01*
X142379650Y-70659423D01*
X142379642Y-70659419D01*
X142180708Y-70566655D01*
X142180706Y-70566654D01*
X142180703Y-70566653D01*
X142029885Y-70526240D01*
X141968675Y-70509839D01*
X141968668Y-70509838D01*
X141750002Y-70490708D01*
X141749998Y-70490708D01*
X141531331Y-70509838D01*
X141531324Y-70509839D01*
X141408902Y-70542642D01*
X141319297Y-70566653D01*
X141319295Y-70566653D01*
X141319291Y-70566655D01*
X141120357Y-70659419D01*
X141120349Y-70659423D01*
X140940547Y-70785322D01*
X140940541Y-70785327D01*
X140785327Y-70940541D01*
X140785322Y-70940547D01*
X140659423Y-71120349D01*
X140659419Y-71120357D01*
X140566655Y-71319291D01*
X140509839Y-71531324D01*
X140509838Y-71531331D01*
X140490708Y-71749997D01*
X140490708Y-71750000D01*
X138504499Y-71750000D01*
X138504499Y-70948128D01*
X138498091Y-70888517D01*
X138459603Y-70785326D01*
X138447797Y-70753671D01*
X138447793Y-70753664D01*
X138361547Y-70638455D01*
X138361544Y-70638452D01*
X138246335Y-70552206D01*
X138246328Y-70552202D01*
X138111482Y-70501908D01*
X138111483Y-70501908D01*
X138051883Y-70495501D01*
X138051881Y-70495500D01*
X138051873Y-70495500D01*
X138051864Y-70495500D01*
X136448129Y-70495500D01*
X136448123Y-70495501D01*
X136388516Y-70501908D01*
X136253671Y-70552202D01*
X136253664Y-70552206D01*
X136138455Y-70638452D01*
X136138452Y-70638455D01*
X136052206Y-70753664D01*
X136052202Y-70753671D01*
X136001908Y-70888517D01*
X135996315Y-70940543D01*
X135995501Y-70948123D01*
X135995500Y-70948135D01*
X135995500Y-72551870D01*
X123217954Y-72551870D01*
X123160543Y-67270000D01*
X156444706Y-67270000D01*
X156463853Y-67513297D01*
X156520830Y-67750619D01*
X156614222Y-67976089D01*
X156741737Y-68184173D01*
X156741738Y-68184176D01*
X156741741Y-68184179D01*
X156900241Y-68369759D01*
X157043897Y-68492453D01*
X157085823Y-68528261D01*
X157085826Y-68528262D01*
X157293910Y-68655777D01*
X157519381Y-68749169D01*
X157519378Y-68749169D01*
X157519384Y-68749170D01*
X157519388Y-68749172D01*
X157756698Y-68806146D01*
X158000000Y-68825294D01*
X158243302Y-68806146D01*
X158480612Y-68749172D01*
X158706089Y-68655777D01*
X158914179Y-68528259D01*
X159099759Y-68369759D01*
X159258259Y-68184179D01*
X159385777Y-67976089D01*
X159479172Y-67750612D01*
X159536146Y-67513302D01*
X159555294Y-67270000D01*
X159536146Y-67026698D01*
X159479172Y-66789388D01*
X159420086Y-66646741D01*
X159385777Y-66563910D01*
X159272550Y-66379142D01*
X159254305Y-66311697D01*
X159275421Y-66245094D01*
X159303962Y-66215088D01*
X159407546Y-66137546D01*
X159493796Y-66022331D01*
X159544091Y-65887483D01*
X159550500Y-65827873D01*
X159550499Y-63632128D01*
X159544091Y-63572517D01*
X159523554Y-63517455D01*
X159493797Y-63437671D01*
X159493793Y-63437664D01*
X159407547Y-63322455D01*
X159407544Y-63322452D01*
X159292335Y-63236206D01*
X159292328Y-63236202D01*
X159157482Y-63185908D01*
X159157483Y-63185908D01*
X159097883Y-63179501D01*
X159097881Y-63179500D01*
X159097873Y-63179500D01*
X159097864Y-63179500D01*
X156902129Y-63179500D01*
X156902123Y-63179501D01*
X156842516Y-63185908D01*
X156707671Y-63236202D01*
X156707664Y-63236206D01*
X156592455Y-63322452D01*
X156592452Y-63322455D01*
X156506206Y-63437664D01*
X156506202Y-63437671D01*
X156455908Y-63572517D01*
X156449501Y-63632116D01*
X156449501Y-63632123D01*
X156449500Y-63632135D01*
X156449500Y-65827870D01*
X156449501Y-65827876D01*
X156455908Y-65887483D01*
X156506202Y-66022328D01*
X156506206Y-66022335D01*
X156592452Y-66137544D01*
X156592455Y-66137547D01*
X156696033Y-66215086D01*
X156737904Y-66271019D01*
X156742888Y-66340711D01*
X156727449Y-66379142D01*
X156614222Y-66563910D01*
X156520830Y-66789380D01*
X156463853Y-67026702D01*
X156444706Y-67270000D01*
X123160543Y-67270000D01*
X123140434Y-65420001D01*
X124694532Y-65420001D01*
X124714364Y-65646686D01*
X124714366Y-65646697D01*
X124773258Y-65866488D01*
X124773261Y-65866497D01*
X124869431Y-66072732D01*
X124869432Y-66072734D01*
X124999954Y-66259141D01*
X125160858Y-66420045D01*
X125207693Y-66452839D01*
X125347266Y-66550568D01*
X125553504Y-66646739D01*
X125773308Y-66705635D01*
X125935230Y-66719801D01*
X125999998Y-66725468D01*
X126000000Y-66725468D01*
X126000002Y-66725468D01*
X126056673Y-66720509D01*
X126226692Y-66705635D01*
X126446496Y-66646739D01*
X126652734Y-66550568D01*
X126839139Y-66420047D01*
X127000047Y-66259139D01*
X127130568Y-66072734D01*
X127226739Y-65866496D01*
X127285635Y-65646692D01*
X127305468Y-65420001D01*
X129194532Y-65420001D01*
X129214364Y-65646686D01*
X129214366Y-65646697D01*
X129273258Y-65866488D01*
X129273261Y-65866497D01*
X129369431Y-66072732D01*
X129369432Y-66072734D01*
X129499954Y-66259141D01*
X129660858Y-66420045D01*
X129707693Y-66452839D01*
X129847266Y-66550568D01*
X130053504Y-66646739D01*
X130273308Y-66705635D01*
X130435230Y-66719801D01*
X130499998Y-66725468D01*
X130500000Y-66725468D01*
X130500002Y-66725468D01*
X130556673Y-66720509D01*
X130726692Y-66705635D01*
X130946496Y-66646739D01*
X131152734Y-66550568D01*
X131339139Y-66420047D01*
X131500047Y-66259139D01*
X131630568Y-66072734D01*
X131726739Y-65866496D01*
X131785635Y-65646692D01*
X131805468Y-65420000D01*
X131790595Y-65250002D01*
X135990708Y-65250002D01*
X136005580Y-65420001D01*
X136009839Y-65468674D01*
X136066653Y-65680703D01*
X136066654Y-65680706D01*
X136066655Y-65680708D01*
X136159419Y-65879642D01*
X136159423Y-65879650D01*
X136285322Y-66059452D01*
X136285327Y-66059458D01*
X136440541Y-66214672D01*
X136440547Y-66214677D01*
X136620349Y-66340576D01*
X136620351Y-66340577D01*
X136620354Y-66340579D01*
X136819297Y-66433347D01*
X137031326Y-66490161D01*
X137187521Y-66503826D01*
X137249998Y-66509292D01*
X137250000Y-66509292D01*
X137250002Y-66509292D01*
X137304668Y-66504509D01*
X137468674Y-66490161D01*
X137680703Y-66433347D01*
X137879646Y-66340579D01*
X138059457Y-66214674D01*
X138214674Y-66059457D01*
X138340579Y-65879646D01*
X138433347Y-65680703D01*
X138490161Y-65468674D01*
X138509292Y-65250002D01*
X140490708Y-65250002D01*
X140505580Y-65420001D01*
X140509839Y-65468674D01*
X140566653Y-65680703D01*
X140566654Y-65680706D01*
X140566655Y-65680708D01*
X140659419Y-65879642D01*
X140659423Y-65879650D01*
X140785322Y-66059452D01*
X140785327Y-66059458D01*
X140940541Y-66214672D01*
X140940547Y-66214677D01*
X141120349Y-66340576D01*
X141120351Y-66340577D01*
X141120354Y-66340579D01*
X141319297Y-66433347D01*
X141531326Y-66490161D01*
X141687521Y-66503826D01*
X141749998Y-66509292D01*
X141750000Y-66509292D01*
X141750002Y-66509292D01*
X141804668Y-66504509D01*
X141968674Y-66490161D01*
X142180703Y-66433347D01*
X142379646Y-66340579D01*
X142559457Y-66214674D01*
X142714674Y-66059457D01*
X142840579Y-65879646D01*
X142933347Y-65680703D01*
X142962241Y-65572870D01*
X146674500Y-65572870D01*
X146674501Y-65572876D01*
X146680908Y-65632483D01*
X146731202Y-65767328D01*
X146731206Y-65767335D01*
X146817452Y-65882544D01*
X146817455Y-65882547D01*
X146932664Y-65968793D01*
X146932671Y-65968797D01*
X147067517Y-66019091D01*
X147067516Y-66019091D01*
X147074444Y-66019835D01*
X147127127Y-66025500D01*
X148872872Y-66025499D01*
X148932483Y-66019091D01*
X149067331Y-65968796D01*
X149182546Y-65882546D01*
X149268796Y-65767331D01*
X149319091Y-65632483D01*
X149325500Y-65572873D01*
X149325499Y-63827128D01*
X149319091Y-63767517D01*
X149268796Y-63632669D01*
X149268795Y-63632668D01*
X149268793Y-63632664D01*
X149182547Y-63517455D01*
X149182544Y-63517452D01*
X149067335Y-63431206D01*
X149067328Y-63431202D01*
X148932482Y-63380908D01*
X148932483Y-63380908D01*
X148872883Y-63374501D01*
X148872881Y-63374500D01*
X148872873Y-63374500D01*
X148872864Y-63374500D01*
X147127129Y-63374500D01*
X147127123Y-63374501D01*
X147067516Y-63380908D01*
X146932671Y-63431202D01*
X146932664Y-63431206D01*
X146817455Y-63517452D01*
X146817452Y-63517455D01*
X146731206Y-63632664D01*
X146731202Y-63632671D01*
X146680908Y-63767517D01*
X146674501Y-63827116D01*
X146674501Y-63827123D01*
X146674500Y-63827135D01*
X146674500Y-65572870D01*
X142962241Y-65572870D01*
X142990161Y-65468674D01*
X143009292Y-65250000D01*
X142990161Y-65031326D01*
X142933347Y-64819297D01*
X142840579Y-64620354D01*
X142840577Y-64620351D01*
X142840576Y-64620349D01*
X142714677Y-64440547D01*
X142714672Y-64440541D01*
X142559458Y-64285327D01*
X142559452Y-64285322D01*
X142379650Y-64159423D01*
X142379642Y-64159419D01*
X142180708Y-64066655D01*
X142180706Y-64066654D01*
X142180703Y-64066653D01*
X142029885Y-64026240D01*
X141968675Y-64009839D01*
X141968668Y-64009838D01*
X141750002Y-63990708D01*
X141749998Y-63990708D01*
X141531331Y-64009838D01*
X141531324Y-64009839D01*
X141408902Y-64042642D01*
X141319297Y-64066653D01*
X141319295Y-64066653D01*
X141319291Y-64066655D01*
X141120357Y-64159419D01*
X141120349Y-64159423D01*
X140940547Y-64285322D01*
X140940541Y-64285327D01*
X140785327Y-64440541D01*
X140785322Y-64440547D01*
X140659423Y-64620349D01*
X140659419Y-64620357D01*
X140566655Y-64819291D01*
X140509839Y-65031324D01*
X140509838Y-65031331D01*
X140490708Y-65249997D01*
X140490708Y-65250002D01*
X138509292Y-65250002D01*
X138509292Y-65250000D01*
X138490161Y-65031326D01*
X138433347Y-64819297D01*
X138340579Y-64620354D01*
X138340577Y-64620351D01*
X138340576Y-64620349D01*
X138214677Y-64440547D01*
X138214672Y-64440541D01*
X138059458Y-64285327D01*
X138059452Y-64285322D01*
X137879650Y-64159423D01*
X137879642Y-64159419D01*
X137680708Y-64066655D01*
X137680706Y-64066654D01*
X137680703Y-64066653D01*
X137529885Y-64026240D01*
X137468675Y-64009839D01*
X137468668Y-64009838D01*
X137250002Y-63990708D01*
X137249998Y-63990708D01*
X137031331Y-64009838D01*
X137031324Y-64009839D01*
X136908902Y-64042642D01*
X136819297Y-64066653D01*
X136819295Y-64066653D01*
X136819291Y-64066655D01*
X136620357Y-64159419D01*
X136620349Y-64159423D01*
X136440547Y-64285322D01*
X136440541Y-64285327D01*
X136285327Y-64440541D01*
X136285322Y-64440547D01*
X136159423Y-64620349D01*
X136159419Y-64620357D01*
X136066655Y-64819291D01*
X136009839Y-65031324D01*
X136009838Y-65031331D01*
X135990708Y-65249997D01*
X135990708Y-65250002D01*
X131790595Y-65250002D01*
X131785635Y-65193308D01*
X131726739Y-64973504D01*
X131630568Y-64767266D01*
X131500047Y-64580861D01*
X131500045Y-64580858D01*
X131339141Y-64419954D01*
X131152734Y-64289432D01*
X131152732Y-64289431D01*
X130946497Y-64193261D01*
X130946488Y-64193258D01*
X130726697Y-64134366D01*
X130726693Y-64134365D01*
X130726692Y-64134365D01*
X130726691Y-64134364D01*
X130726686Y-64134364D01*
X130500002Y-64114532D01*
X130499998Y-64114532D01*
X130273313Y-64134364D01*
X130273302Y-64134366D01*
X130053511Y-64193258D01*
X130053502Y-64193261D01*
X129847267Y-64289431D01*
X129847265Y-64289432D01*
X129660858Y-64419954D01*
X129499954Y-64580858D01*
X129369432Y-64767265D01*
X129369431Y-64767267D01*
X129273261Y-64973502D01*
X129273258Y-64973511D01*
X129214366Y-65193302D01*
X129214364Y-65193313D01*
X129194532Y-65419998D01*
X129194532Y-65420001D01*
X127305468Y-65420001D01*
X127305468Y-65420000D01*
X127285635Y-65193308D01*
X127226739Y-64973504D01*
X127130568Y-64767266D01*
X127000047Y-64580861D01*
X127000045Y-64580858D01*
X126839141Y-64419954D01*
X126652734Y-64289432D01*
X126652732Y-64289431D01*
X126446497Y-64193261D01*
X126446488Y-64193258D01*
X126226697Y-64134366D01*
X126226693Y-64134365D01*
X126226692Y-64134365D01*
X126226691Y-64134364D01*
X126226686Y-64134364D01*
X126000002Y-64114532D01*
X125999998Y-64114532D01*
X125773313Y-64134364D01*
X125773302Y-64134366D01*
X125553511Y-64193258D01*
X125553502Y-64193261D01*
X125347267Y-64289431D01*
X125347265Y-64289432D01*
X125160858Y-64419954D01*
X124999954Y-64580858D01*
X124869432Y-64767265D01*
X124869431Y-64767267D01*
X124773261Y-64973502D01*
X124773258Y-64973511D01*
X124714366Y-65193302D01*
X124714364Y-65193313D01*
X124694532Y-65419998D01*
X124694532Y-65420001D01*
X123140434Y-65420001D01*
X123059782Y-58000000D01*
X132404706Y-58000000D01*
X132423853Y-58243297D01*
X132480830Y-58480619D01*
X132574222Y-58706089D01*
X132701737Y-58914173D01*
X132701738Y-58914176D01*
X132701741Y-58914179D01*
X132860241Y-59099759D01*
X133003897Y-59222453D01*
X133045823Y-59258261D01*
X133045826Y-59258262D01*
X133253910Y-59385777D01*
X133479381Y-59479169D01*
X133479378Y-59479169D01*
X133479384Y-59479170D01*
X133479388Y-59479172D01*
X133716698Y-59536146D01*
X133960000Y-59555294D01*
X134203302Y-59536146D01*
X134440612Y-59479172D01*
X134666089Y-59385777D01*
X134850859Y-59272549D01*
X134918302Y-59254305D01*
X134984905Y-59275421D01*
X135014913Y-59303966D01*
X135092452Y-59407544D01*
X135092455Y-59407547D01*
X135207664Y-59493793D01*
X135207671Y-59493797D01*
X135342517Y-59544091D01*
X135342516Y-59544091D01*
X135349444Y-59544835D01*
X135402127Y-59550500D01*
X137597872Y-59550499D01*
X137657483Y-59544091D01*
X137792331Y-59493796D01*
X137907546Y-59407546D01*
X137993796Y-59292331D01*
X138044091Y-59157483D01*
X138050500Y-59097873D01*
X138050499Y-57500000D01*
X145904706Y-57500000D01*
X145923853Y-57743297D01*
X145980830Y-57980619D01*
X146074222Y-58206089D01*
X146201737Y-58414173D01*
X146201738Y-58414176D01*
X146201741Y-58414179D01*
X146360241Y-58599759D01*
X146484738Y-58706089D01*
X146545823Y-58758261D01*
X146545826Y-58758262D01*
X146753910Y-58885777D01*
X146979381Y-58979169D01*
X146979378Y-58979169D01*
X146979384Y-58979170D01*
X146979388Y-58979172D01*
X147216698Y-59036146D01*
X147460000Y-59055294D01*
X147703302Y-59036146D01*
X147940612Y-58979172D01*
X148166089Y-58885777D01*
X148350859Y-58772549D01*
X148418302Y-58754305D01*
X148484905Y-58775421D01*
X148514913Y-58803966D01*
X148592452Y-58907544D01*
X148592455Y-58907547D01*
X148707664Y-58993793D01*
X148707671Y-58993797D01*
X148842517Y-59044091D01*
X148842516Y-59044091D01*
X148849444Y-59044835D01*
X148902127Y-59050500D01*
X151097872Y-59050499D01*
X151157483Y-59044091D01*
X151292331Y-58993796D01*
X151407546Y-58907546D01*
X151493796Y-58792331D01*
X151544091Y-58657483D01*
X151550500Y-58597873D01*
X151550499Y-56402128D01*
X151544091Y-56342517D01*
X151501173Y-56227449D01*
X151493797Y-56207671D01*
X151493793Y-56207664D01*
X151407547Y-56092455D01*
X151407544Y-56092452D01*
X151292335Y-56006206D01*
X151292328Y-56006202D01*
X151157482Y-55955908D01*
X151157483Y-55955908D01*
X151097883Y-55949501D01*
X151097881Y-55949500D01*
X151097873Y-55949500D01*
X151097864Y-55949500D01*
X148902129Y-55949500D01*
X148902123Y-55949501D01*
X148842516Y-55955908D01*
X148707671Y-56006202D01*
X148707664Y-56006206D01*
X148592455Y-56092452D01*
X148514913Y-56196034D01*
X148458979Y-56237904D01*
X148389287Y-56242888D01*
X148350857Y-56227449D01*
X148166089Y-56114222D01*
X147940618Y-56020830D01*
X147940621Y-56020830D01*
X147834992Y-55995470D01*
X147703302Y-55963854D01*
X147703300Y-55963853D01*
X147703297Y-55963853D01*
X147460000Y-55944706D01*
X147216702Y-55963853D01*
X147216698Y-55963854D01*
X147040301Y-56006204D01*
X146979380Y-56020830D01*
X146753910Y-56114222D01*
X146545826Y-56241737D01*
X146545823Y-56241738D01*
X146360241Y-56400241D01*
X146201738Y-56585823D01*
X146201737Y-56585826D01*
X146074222Y-56793910D01*
X145980830Y-57019380D01*
X145923853Y-57256702D01*
X145904706Y-57500000D01*
X138050499Y-57500000D01*
X138050499Y-56902128D01*
X138044091Y-56842517D01*
X138001173Y-56727449D01*
X137993797Y-56707671D01*
X137993793Y-56707664D01*
X137907547Y-56592455D01*
X137907544Y-56592452D01*
X137792335Y-56506206D01*
X137792328Y-56506202D01*
X137657482Y-56455908D01*
X137657483Y-56455908D01*
X137597883Y-56449501D01*
X137597881Y-56449500D01*
X137597873Y-56449500D01*
X137597864Y-56449500D01*
X135402129Y-56449500D01*
X135402123Y-56449501D01*
X135342516Y-56455908D01*
X135207671Y-56506202D01*
X135207664Y-56506206D01*
X135092455Y-56592452D01*
X135014913Y-56696034D01*
X134958979Y-56737904D01*
X134889287Y-56742888D01*
X134850857Y-56727449D01*
X134666089Y-56614222D01*
X134440618Y-56520830D01*
X134440621Y-56520830D01*
X134334992Y-56495470D01*
X134203302Y-56463854D01*
X134203300Y-56463853D01*
X134203297Y-56463853D01*
X133960000Y-56444706D01*
X133716702Y-56463853D01*
X133716698Y-56463854D01*
X133540301Y-56506204D01*
X133479380Y-56520830D01*
X133253910Y-56614222D01*
X133045826Y-56741737D01*
X133045823Y-56741738D01*
X132860241Y-56900241D01*
X132701738Y-57085823D01*
X132701737Y-57085826D01*
X132574222Y-57293910D01*
X132480830Y-57519380D01*
X132423853Y-57756702D01*
X132404706Y-58000000D01*
X123059782Y-58000000D01*
X123001362Y-52625346D01*
X123020317Y-52558098D01*
X123072621Y-52511772D01*
X123125355Y-52500000D01*
X161876000Y-52500000D01*
X161943039Y-52519685D01*
G37*
%TD.AperFunction*%
%TD*%
M02*
