%TF.GenerationSoftware,KiCad,Pcbnew,8.0.1*%
%TF.CreationDate,2024-07-20T13:09:04-07:00*%
%TF.ProjectId,Solenoid Control,536f6c65-6e6f-4696-9420-436f6e74726f,rev?*%
%TF.SameCoordinates,Original*%
%TF.FileFunction,Soldermask,Bot*%
%TF.FilePolarity,Negative*%
%FSLAX46Y46*%
G04 Gerber Fmt 4.6, Leading zero omitted, Abs format (unit mm)*
G04 Created by KiCad (PCBNEW 8.0.1) date 2024-07-20 13:09:04*
%MOMM*%
%LPD*%
G01*
G04 APERTURE LIST*
G04 Aperture macros list*
%AMRoundRect*
0 Rectangle with rounded corners*
0 $1 Rounding radius*
0 $2 $3 $4 $5 $6 $7 $8 $9 X,Y pos of 4 corners*
0 Add a 4 corners polygon primitive as box body*
4,1,4,$2,$3,$4,$5,$6,$7,$8,$9,$2,$3,0*
0 Add four circle primitives for the rounded corners*
1,1,$1+$1,$2,$3*
1,1,$1+$1,$4,$5*
1,1,$1+$1,$6,$7*
1,1,$1+$1,$8,$9*
0 Add four rect primitives between the rounded corners*
20,1,$1+$1,$2,$3,$4,$5,0*
20,1,$1+$1,$4,$5,$6,$7,0*
20,1,$1+$1,$6,$7,$8,$9,0*
20,1,$1+$1,$8,$9,$2,$3,0*%
G04 Aperture macros list end*
%ADD10C,1.854000*%
%ADD11RoundRect,0.102000X-0.825000X0.825000X-0.825000X-0.825000X0.825000X-0.825000X0.825000X0.825000X0*%
%ADD12C,1.600000*%
%ADD13R,1.500000X1.500000*%
%ADD14R,2.100000X2.100000*%
%ADD15C,2.100000*%
%ADD16O,1.600000X1.600000*%
%ADD17R,1.300000X1.300000*%
%ADD18C,1.300000*%
%ADD19RoundRect,0.102000X0.754000X-0.754000X0.754000X0.754000X-0.754000X0.754000X-0.754000X-0.754000X0*%
%ADD20C,1.712000*%
%ADD21C,2.214000*%
%ADD22RoundRect,0.102000X1.005000X1.005000X-1.005000X1.005000X-1.005000X-1.005000X1.005000X-1.005000X0*%
G04 APERTURE END LIST*
D10*
%TO.C,D2*%
X148000000Y-75300000D03*
D11*
X148000000Y-64700000D03*
%TD*%
D12*
%TO.C,SW2*%
X140000000Y-85580000D03*
D13*
X140000000Y-83040000D03*
D12*
X140000000Y-80500000D03*
%TD*%
D14*
%TO.C,J3*%
X150000000Y-57500000D03*
D15*
X147460000Y-57500000D03*
%TD*%
D12*
%TO.C,R3*%
X126000000Y-75580000D03*
D16*
X126000000Y-65420000D03*
%TD*%
D14*
%TO.C,J6*%
X136500000Y-58000000D03*
D15*
X133960000Y-58000000D03*
%TD*%
D17*
%TO.C,Q3*%
X133000000Y-80500000D03*
D18*
X134270000Y-81780000D03*
X133000000Y-83040000D03*
%TD*%
D19*
%TO.C,S1*%
X137250000Y-71750000D03*
D20*
X137250000Y-65250000D03*
X141750000Y-71750000D03*
X141750000Y-65250000D03*
%TD*%
D14*
%TO.C,J1*%
X158000000Y-64730000D03*
D15*
X158000000Y-67270000D03*
%TD*%
D12*
%TO.C,R2*%
X134420000Y-75500000D03*
D16*
X144580000Y-75500000D03*
%TD*%
D17*
%TO.C,Q2*%
X131720000Y-89500000D03*
D18*
X133000000Y-88230000D03*
X134260000Y-89500000D03*
%TD*%
D14*
%TO.C,J4*%
X158770000Y-92500000D03*
D15*
X156230000Y-92500000D03*
%TD*%
D12*
%TO.C,R5*%
X134420000Y-95500000D03*
D16*
X144580000Y-95500000D03*
%TD*%
D12*
%TO.C,R4*%
X126000000Y-80920000D03*
D16*
X126000000Y-91080000D03*
%TD*%
D14*
%TO.C,J2*%
X158000000Y-75230000D03*
D15*
X158000000Y-77770000D03*
%TD*%
D12*
%TO.C,R1*%
X130500000Y-75580000D03*
D16*
X130500000Y-65420000D03*
%TD*%
D21*
%TO.C,Q1*%
X148000000Y-83040000D03*
X145460000Y-83040000D03*
D22*
X150540000Y-83040000D03*
%TD*%
D14*
%TO.C,J5*%
X150770000Y-92500000D03*
D15*
X148230000Y-92500000D03*
%TD*%
M02*
