M48
; DRILL file {KiCad 8.0.1} date 2024-07-20T13:09:22-0700
; FORMAT={-:-/ absolute / inch / decimal}
; #@! TF.CreationDate,2024-07-20T13:09:22-07:00
; #@! TF.GenerationSoftware,Kicad,Pcbnew,8.0.1
; #@! TF.FileFunction,Plated,1,2,PTH
FMAT,2
INCH
; #@! TA.AperFunction,Plated,PTH,ComponentDrill
T1C0.0295
; #@! TA.AperFunction,Plated,PTH,ComponentDrill
T2C0.0315
; #@! TA.AperFunction,Plated,PTH,ComponentDrill
T3C0.0394
; #@! TA.AperFunction,Plated,PTH,ComponentDrill
T4C0.0433
; #@! TA.AperFunction,Plated,PTH,ComponentDrill
T5C0.0528
%
G90
G05
T1
X5.1858Y-3.5236
X5.2362Y-3.1693
X5.2362Y-3.2693
X5.2362Y-3.4736
X5.2858Y-3.5236
X5.2862Y-3.2197
T2
X4.9606Y-2.5756
X4.9606Y-2.9756
X4.9606Y-3.1858
X4.9606Y-3.5858
X5.1378Y-2.5756
X5.1378Y-2.9756
X5.2921Y-2.9724
X5.2921Y-3.7598
X5.5118Y-3.1693
X5.5118Y-3.2693
X5.5118Y-3.3693
X5.6921Y-2.9724
X5.6921Y-3.7598
T3
X5.4035Y-2.5689
X5.4035Y-2.8248
X5.5807Y-2.5689
X5.5807Y-2.8248
T4
X5.274Y-2.2835
X5.374Y-2.2835
X5.8055Y-2.2638
X5.8268Y-2.5472
X5.8268Y-2.9646
X5.8358Y-3.6417
X5.9055Y-2.2638
X5.9358Y-3.6417
X6.1508Y-3.6417
X6.2205Y-2.5484
X6.2205Y-2.6484
X6.2205Y-2.9618
X6.2205Y-3.0618
X6.2508Y-3.6417
T5
X5.7268Y-3.2693
X5.8268Y-3.2693
X5.9268Y-3.2693
M30
